STARTFONT 2.1
FONT -FontForge-Asap Condensed-Bold-R-Condensed---30-290-75-75-P-138-ISO10646-1
SIZE 29 75 75
FONTBOUNDINGBOX 31 38 -2 -7
COMMENT "Generated by fontforge, http://fontforge.sourceforge.net"
COMMENT "Copyright 2017 The Asap Condensed Project Authors (https://github.com/Omnibus-Type/AsapCondensed) with Reserved Font Name "Asap"."
STARTPROPERTIES 40
FOUNDRY "FontForge"
FAMILY_NAME "Asap Condensed"
WEIGHT_NAME "Bold"
SLANT "R"
SETWIDTH_NAME "Condensed"
ADD_STYLE_NAME ""
PIXEL_SIZE 30
POINT_SIZE 290
RESOLUTION_X 75
RESOLUTION_Y 75
SPACING "P"
AVERAGE_WIDTH 138
CHARSET_REGISTRY "ISO10646"
CHARSET_ENCODING "1"
FONTNAME_REGISTRY ""
CHARSET_COLLECTIONS "ISO10646-1"
FONT_NAME "AsapCondensed-Bold"
FACE_NAME "Asap Condensed Bold"
COPYRIGHT "Copyright 2017 The Asap Condensed Project Authors (https://github.com/Omnibus-Type/AsapCondensed) with Reserved Font Name "Asap"."
FONT_VERSION "1.008; ttfautohint (v1.6)"
FONT_ASCENT 24
FONT_DESCENT 6
UNDERLINE_POSITION -3
UNDERLINE_THICKNESS 3
X_HEIGHT 15
CAP_HEIGHT 20
RAW_ASCENT 800
RAW_DESCENT 200
NORM_SPACE 4
RELATIVE_WEIGHT 70
RELATIVE_SETWIDTH 50
SUPERSCRIPT_X 0
SUPERSCRIPT_Y 10
SUPERSCRIPT_SIZE 18
SUBSCRIPT_X 0
SUBSCRIPT_Y 2
SUBSCRIPT_SIZE 18
FIGURE_WIDTH 14
AVG_LOWERCASE_WIDTH 132
AVG_UPPERCASE_WIDTH 158
ENDPROPERTIES
CHARS 305
STARTCHAR nonmarkingreturn
ENCODING 13
SWIDTH 137 0
DWIDTH 4 0
BBX 1 1 0 0
BITMAP
00
ENDCHAR
STARTCHAR space
ENCODING 32
SWIDTH 137 0
DWIDTH 4 0
BBX 1 1 0 0
BITMAP
00
ENDCHAR
STARTCHAR exclam
ENCODING 33
SWIDTH 246 0
DWIDTH 7 0
BBX 6 21 1 0
BITMAP
7C
7C
7C
7C
78
78
78
78
78
78
78
78
70
70
00
00
00
F8
F8
F8
78
ENDCHAR
STARTCHAR quotedbl
ENCODING 34
SWIDTH 309 0
DWIDTH 9 0
BBX 9 7 0 14
BITMAP
7780
F780
7780
7780
7700
7300
7300
ENDCHAR
STARTCHAR numbersign
ENCODING 35
SWIDTH 514 0
DWIDTH 15 0
BBX 15 21 0 0
BITMAP
073C
0F38
0F38
0F38
0E38
7FFE
7FFE
7FFE
7FFE
1E70
1E70
1C70
FFFC
FFFC
FFFC
FFFC
3CE0
3CE0
38E0
39E0
39E0
ENDCHAR
STARTCHAR percent
ENCODING 37
SWIDTH 686 0
DWIDTH 21 0
BBX 19 21 1 0
BITMAP
3C0E00
7E0E00
FF1E00
E71C00
E71C00
E73800
E73800
E77000
7E7000
3CE000
00E000
01E780
01DFC0
01DFC0
039DE0
039CE0
071CE0
071CE0
0E1DC0
0E1FC0
0C0780
ENDCHAR
STARTCHAR ampersand
ENCODING 38
SWIDTH 520 0
DWIDTH 16 0
BBX 16 21 0 0
BITMAP
1F00
3F80
7F80
7F00
7C00
783C
787C
7C7C
3FFE
1FFE
7FFE
7FFE
F87C
F87C
F87C
F87C
F87C
7FFE
7FFE
3FFF
1F1E
ENDCHAR
STARTCHAR quotesingle
ENCODING 39
SWIDTH 164 0
DWIDTH 5 0
BBX 3 7 1 14
BITMAP
E0
E0
E0
E0
E0
E0
E0
ENDCHAR
STARTCHAR parenleft
ENCODING 40
SWIDTH 249 0
DWIDTH 7 0
BBX 7 30 1 -6
BITMAP
0C
1E
1C
3C
38
38
78
70
70
F0
F0
F0
F0
F0
F0
F0
F0
F0
F0
F0
F0
70
70
78
38
38
3C
1C
1E
0C
ENDCHAR
STARTCHAR parenright
ENCODING 41
SWIDTH 249 0
DWIDTH 7 0
BBX 6 30 0 -6
BITMAP
C0
E0
F0
70
70
38
38
38
3C
1C
1C
1C
1C
1C
1C
1C
1C
1C
1C
1C
1C
3C
3C
38
78
78
70
F0
E0
C0
ENDCHAR
STARTCHAR asterisk
ENCODING 42
SWIDTH 299 0
DWIDTH 9 0
BBX 8 9 0 12
BITMAP
08
08
08
FF
7E
1C
36
36
62
ENDCHAR
STARTCHAR plus
ENCODING 43
SWIDTH 449 0
DWIDTH 13 0
BBX 12 14 1 0
BITMAP
0E00
0E00
0E00
0E00
0E00
FFE0
FFF0
FFE0
0E00
0E00
0E00
0E00
0E00
0E00
ENDCHAR
STARTCHAR comma
ENCODING 44
SWIDTH 188 0
DWIDTH 6 0
BBX 5 8 0 -4
BITMAP
78
78
78
78
70
F0
E0
C0
ENDCHAR
STARTCHAR hyphen
ENCODING 45
SWIDTH 256 0
DWIDTH 8 0
BBX 7 3 0 6
BITMAP
7E
FE
7E
ENDCHAR
STARTCHAR period
ENCODING 46
SWIDTH 188 0
DWIDTH 6 0
BBX 4 4 1 0
BITMAP
F0
F0
F0
F0
ENDCHAR
STARTCHAR slash
ENCODING 47
SWIDTH 320 0
DWIDTH 10 0
BBX 11 23 -1 -2
BITMAP
01E0
01E0
01E0
03C0
03C0
03C0
0780
0780
0780
0700
0F00
0F00
0E00
1E00
1E00
1C00
3C00
3C00
3800
7800
7800
7000
F000
ENDCHAR
STARTCHAR zero
ENCODING 48
SWIDTH 459 0
DWIDTH 14 0
BBX 12 21 1 0
BITMAP
0F00
3FC0
7FC0
7FE0
F9E0
F9F0
F0F0
F0F0
F0F0
F0F0
F0F0
F0F0
F0F0
F0F0
F0F0
F9F0
F9E0
7FE0
7FC0
3FC0
1F80
ENDCHAR
STARTCHAR one
ENCODING 49
SWIDTH 459 0
DWIDTH 14 0
BBX 12 21 1 0
BITMAP
0F00
FF00
FF00
FF00
0F00
0F00
0F00
0F00
0F00
0F00
0F00
0F00
0F00
0F00
0F00
0F00
0F00
FFF0
FFF0
FFF0
FFF0
ENDCHAR
STARTCHAR two
ENCODING 50
SWIDTH 459 0
DWIDTH 14 0
BBX 13 21 0 0
BITMAP
1FC0
7FE0
7FF0
7FF0
70F8
00F8
00F8
00F0
01F0
01E0
03E0
07C0
0F80
0F00
1F00
3E00
3C00
7FF8
FFF8
FFF8
FFF8
ENDCHAR
STARTCHAR three
ENCODING 51
SWIDTH 459 0
DWIDTH 14 0
BBX 13 21 0 0
BITMAP
1F80
7FE0
7FE0
7FF0
21F0
00F0
01F0
01E0
1FE0
1F80
1FE0
1FF0
01F0
00F8
00F8
00F8
61F8
FFF0
FFF0
7FE0
1F80
ENDCHAR
STARTCHAR four
ENCODING 52
SWIDTH 459 0
DWIDTH 14 0
BBX 14 21 0 0
BITMAP
01F0
03F0
03F0
07F0
07F0
0FF0
0EF0
1EF0
1DF0
3DF0
39F0
79F0
79F0
FFFC
FFFC
FFFC
FFFC
01F0
01F0
01F0
01F0
ENDCHAR
STARTCHAR five
ENCODING 53
SWIDTH 459 0
DWIDTH 14 0
BBX 12 21 1 0
BITMAP
FFE0
FFE0
FFE0
FFE0
F800
F800
F800
FF00
FFC0
FFE0
FFE0
03F0
01F0
01F0
01F0
01F0
C3F0
FFE0
FFE0
FFC0
3F00
ENDCHAR
STARTCHAR six
ENCODING 54
SWIDTH 459 0
DWIDTH 14 0
BBX 12 21 1 0
BITMAP
00E0
03E0
0FE0
1F80
3F00
3C00
7C00
7800
FF80
FFE0
FFE0
FFF0
F1F0
F0F0
F0F0
F0F0
F9F0
7FF0
7FE0
3FC0
0F80
ENDCHAR
STARTCHAR seven
ENCODING 55
SWIDTH 459 0
DWIDTH 14 0
BBX 12 21 1 0
BITMAP
FFE0
FFF0
FFF0
FFF0
01F0
01E0
03E0
03C0
07C0
07C0
0780
0F80
0F00
1F00
1F00
1E00
3E00
3C00
7C00
7C00
F800
ENDCHAR
STARTCHAR eight
ENCODING 56
SWIDTH 459 0
DWIDTH 14 0
BBX 12 21 1 0
BITMAP
1F80
3FC0
7FE0
FFF0
F9F0
F0F0
F0F0
79E0
7FE0
3FC0
3FC0
7FE0
F9F0
F0F0
F0F0
F0F0
F9F0
FFF0
7FE0
3FC0
1F80
ENDCHAR
STARTCHAR nine
ENCODING 57
SWIDTH 459 0
DWIDTH 14 0
BBX 12 21 1 0
BITMAP
1F00
3FC0
7FE0
FFE0
F9F0
F0F0
F0F0
F0F0
F9F0
FFF0
FFF0
7FF0
1DE0
03E0
03E0
07C0
0F80
1F80
7F00
7C00
7000
ENDCHAR
STARTCHAR colon
ENCODING 58
SWIDTH 188 0
DWIDTH 6 0
BBX 4 16 1 0
BITMAP
F0
F0
F0
F0
00
00
00
00
00
00
00
00
F0
F0
F0
F0
ENDCHAR
STARTCHAR semicolon
ENCODING 59
SWIDTH 188 0
DWIDTH 6 0
BBX 5 19 0 -3
BITMAP
78
78
78
78
00
00
00
00
00
00
00
78
78
78
78
70
F0
E0
C0
ENDCHAR
STARTCHAR less
ENCODING 60
SWIDTH 448 0
DWIDTH 13 0
BBX 11 14 1 0
BITMAP
0020
00E0
03E0
0FE0
3F80
FE00
F800
F800
7E00
3F80
0FE0
03E0
00E0
0020
ENDCHAR
STARTCHAR equal
ENCODING 61
SWIDTH 449 0
DWIDTH 13 0
BBX 12 9 1 3
BITMAP
FFE0
FFF0
FFE0
0000
0000
0000
FFE0
FFF0
FFE0
ENDCHAR
STARTCHAR greater
ENCODING 62
SWIDTH 448 0
DWIDTH 13 0
BBX 11 14 1 0
BITMAP
C000
E000
F800
7E00
3F80
0FE0
03E0
03E0
0FE0
3F80
FE00
F800
E000
8000
ENDCHAR
STARTCHAR question
ENCODING 63
SWIDTH 391 0
DWIDTH 12 0
BBX 12 21 0 0
BITMAP
1F00
7FC0
FFE0
7FE0
23F0
01F0
01E0
03E0
07E0
07C0
0F80
1F00
1E00
1E00
1C00
0000
0000
1E00
1E00
1E00
1E00
ENDCHAR
STARTCHAR at
ENCODING 64
SWIDTH 792 0
DWIDTH 24 0
BBX 20 24 2 -3
BITMAP
00FC00
03FF00
0F0380
1C01C0
1800E0
31EE60
63FE60
67FE30
C79E30
C71C30
CF1C30
CF3C30
CF3C60
CF3C60
CF3C60
CFFCC0
C7FFC0
C7DF80
E38E00
600000
700000
3C1000
1FF000
07E000
ENDCHAR
STARTCHAR A
ENCODING 65
SWIDTH 505 0
DWIDTH 15 0
BBX 15 21 0 0
BITMAP
07C0
07E0
0FE0
0FE0
0FE0
0EF0
1EF0
1EF0
1EF0
1E78
3C78
3C78
3C78
3FF8
7FFC
7FFC
7FFC
783C
F83E
F83E
F01E
ENDCHAR
STARTCHAR B
ENCODING 66
SWIDTH 539 0
DWIDTH 16 0
BBX 13 21 2 0
BITMAP
FFC0
FFE0
FFF0
FFF0
F0F0
F0F0
F0F0
F0F0
FFE0
FFC0
FFE0
FFF0
F0F8
F0F8
F078
F0F8
F0F8
FFF8
FFF0
FFE0
FF80
ENDCHAR
STARTCHAR C
ENCODING 67
SWIDTH 459 0
DWIDTH 14 0
BBX 12 21 1 0
BITMAP
07E0
1FF0
3FF0
7FE0
7E00
7C00
F800
F800
F800
F800
F800
F800
F800
F800
F800
7C00
7E00
7FF0
3FF0
1FF0
07E0
ENDCHAR
STARTCHAR D
ENCODING 68
SWIDTH 577 0
DWIDTH 17 0
BBX 14 21 2 0
BITMAP
FF80
FFE0
FFF0
FFF8
F0F8
F07C
F07C
F07C
F07C
F07C
F07C
F07C
F07C
F07C
F07C
F07C
F0F8
FFF8
FFF0
FFE0
FF80
ENDCHAR
STARTCHAR E
ENCODING 69
SWIDTH 457 0
DWIDTH 14 0
BBX 11 21 2 0
BITMAP
FFC0
FFE0
FFE0
FFC0
F000
F000
F000
F000
FFC0
FFC0
FFC0
FFC0
F000
F000
F000
F000
F000
FFC0
FFE0
FFE0
FFC0
ENDCHAR
STARTCHAR F
ENCODING 70
SWIDTH 423 0
DWIDTH 13 0
BBX 10 21 2 0
BITMAP
FFC0
FFC0
FFC0
FFC0
F000
F000
F000
F000
FF80
FFC0
FFC0
FFC0
F000
F000
F000
F000
F000
F000
F000
F000
F000
ENDCHAR
STARTCHAR G
ENCODING 71
SWIDTH 552 0
DWIDTH 17 0
BBX 14 21 1 0
BITMAP
07F0
1FFC
3FFC
7FF8
7E10
7C00
F800
F800
F9FC
F9FC
F9FC
F9FC
F83C
F83C
F83C
7C3C
7E3C
7FFC
3FFC
1FFC
07F0
ENDCHAR
STARTCHAR H
ENCODING 72
SWIDTH 600 0
DWIDTH 18 0
BBX 14 21 2 0
BITMAP
F03C
F03C
F03C
F03C
F03C
F03C
F03C
F03C
FFFC
FFFC
FFFC
FFFC
F03C
F03C
F03C
F03C
F03C
F03C
F03C
F03C
F03C
ENDCHAR
STARTCHAR I
ENCODING 73
SWIDTH 262 0
DWIDTH 8 0
BBX 4 21 2 0
BITMAP
F0
F0
F0
F0
F0
F0
F0
F0
F0
F0
F0
F0
F0
F0
F0
F0
F0
F0
F0
F0
F0
ENDCHAR
STARTCHAR J
ENCODING 74
SWIDTH 355 0
DWIDTH 11 0
BBX 9 21 0 0
BITMAP
0780
0F80
0F80
0F80
0F80
0F80
0F80
0F80
0F80
0F80
0F80
0F80
0F80
0F80
0F80
0F80
0F80
7F80
FF00
FF00
7C00
ENDCHAR
STARTCHAR K
ENCODING 75
SWIDTH 510 0
DWIDTH 15 0
BBX 14 21 2 0
BITMAP
F078
F0F8
F0F8
F1F0
F1E0
F3E0
F3C0
F3C0
F780
F780
FF80
F780
F7C0
F7C0
F3E0
F3E0
F1F0
F1F0
F0F8
F0F8
F07C
ENDCHAR
STARTCHAR L
ENCODING 76
SWIDTH 408 0
DWIDTH 12 0
BBX 10 21 2 0
BITMAP
F000
F000
F000
F000
F000
F000
F000
F000
F000
F000
F000
F000
F000
F000
F000
F000
F000
FFC0
FFC0
FFC0
FFC0
ENDCHAR
STARTCHAR M
ENCODING 77
SWIDTH 689 0
DWIDTH 21 0
BBX 17 21 2 0
BITMAP
F00780
F00F80
F80F80
F81F80
FC1F80
FC3F80
FE3F80
FF7F80
FF7780
F7F780
F7E780
F3E780
F3C780
F1C780
F00780
F00780
F00780
F00780
F00780
F00780
F00780
ENDCHAR
STARTCHAR N
ENCODING 78
SWIDTH 590 0
DWIDTH 18 0
BBX 14 21 2 0
BITMAP
E03C
F03C
F83C
F83C
FC3C
FC3C
FE3C
FE3C
FF3C
FF3C
F7BC
F7BC
F3FC
F3FC
F1FC
F0FC
F0FC
F07C
F07C
F03C
F03C
ENDCHAR
STARTCHAR O
ENCODING 79
SWIDTH 599 0
DWIDTH 18 0
BBX 16 21 1 0
BITMAP
07E0
1FF8
3FFC
3FFC
7C3E
7C3E
F81E
F81F
F81F
F81F
F81F
F81F
F81F
F81F
F81E
7C3E
7C3E
3FFC
3FFC
1FF8
07E0
ENDCHAR
STARTCHAR P
ENCODING 80
SWIDTH 482 0
DWIDTH 14 0
BBX 12 21 2 0
BITMAP
FF80
FFC0
FFE0
FFF0
F1F0
F1F0
F0F0
F1F0
F1F0
FFF0
FFE0
FFC0
FF80
F000
F000
F000
F000
F000
F000
F000
F000
ENDCHAR
STARTCHAR Q
ENCODING 81
SWIDTH 599 0
DWIDTH 18 0
BBX 17 26 1 -5
BITMAP
07E000
1FF800
3FFC00
3FFC00
7C3E00
7C3E00
781E00
F81F00
F81F00
F81F00
F81F00
F81F00
F81F00
F81F00
F81F00
781E00
7C3E00
7E7E00
3FFC00
1FF800
0FF000
03FC00
00FF00
003F80
000F00
000200
ENDCHAR
STARTCHAR R
ENCODING 82
SWIDTH 513 0
DWIDTH 15 0
BBX 13 21 2 0
BITMAP
FF80
FFC0
FFE0
FFF0
F1F0
F1F0
F1F0
F1F0
F1E0
FFE0
FFC0
FFC0
FFC0
F3E0
F1E0
F1F0
F1F0
F0F0
F0F0
F0F8
F0F8
ENDCHAR
STARTCHAR S
ENCODING 83
SWIDTH 437 0
DWIDTH 13 0
BBX 12 21 1 0
BITMAP
1F80
3FE0
7FE0
FFE0
F840
F800
F800
FC00
7E00
7F80
3FC0
0FE0
07E0
01F0
01F0
01F0
E3F0
FFE0
FFE0
FFC0
3F00
ENDCHAR
STARTCHAR T
ENCODING 84
SWIDTH 454 0
DWIDTH 14 0
BBX 13 21 0 0
BITMAP
FFF8
FFF8
FFF8
FFF8
0F80
0F80
0F80
0F80
0F80
0F80
0F80
0F80
0F80
0F80
0F80
0F80
0F80
0F80
0F80
0F80
0780
ENDCHAR
STARTCHAR U
ENCODING 85
SWIDTH 583 0
DWIDTH 17 0
BBX 14 21 2 0
BITMAP
F07C
F07C
F07C
F07C
F07C
F07C
F07C
F07C
F07C
F07C
F07C
F07C
F07C
F07C
F07C
F07C
F8FC
FFF8
7FF8
3FF0
1FC0
ENDCHAR
STARTCHAR V
ENCODING 86
SWIDTH 508 0
DWIDTH 15 0
BBX 15 21 0 0
BITMAP
F01E
F83E
783E
783C
783C
7C3C
3C7C
3C78
3C78
3C78
3C78
1EF8
1EF0
1EF0
1EF0
0EF0
0FE0
0FE0
0FE0
07E0
07C0
ENDCHAR
STARTCHAR W
ENCODING 87
SWIDTH 752 0
DWIDTH 23 0
BBX 22 21 0 0
BITMAP
F8783C
F87C3C
F87C3C
787C3C
787C3C
78FC78
78FC78
7CFE78
3CFE78
3CEE78
3CEE70
3DEE70
3DCE70
1DCFF0
1DC7F0
1FC7E0
1FC7E0
0F87E0
0F87E0
0F87E0
0F83C0
ENDCHAR
STARTCHAR X
ENCODING 88
SWIDTH 506 0
DWIDTH 15 0
BBX 15 21 0 0
BITMAP
7C3E
7C3E
3C7C
3C7C
3E78
1EF8
1EF0
0FF0
0FE0
07E0
07E0
0FE0
0FF0
1EF0
1EF0
3E78
3C78
7C7C
7C3C
783E
F83E
ENDCHAR
STARTCHAR Y
ENCODING 89
SWIDTH 484 0
DWIDTH 15 0
BBX 14 21 0 0
BITMAP
F83C
F87C
7C7C
7C78
3CF8
3EF8
1EF0
1FF0
1FE0
0FE0
0FC0
07C0
07C0
07C0
07C0
07C0
07C0
07C0
07C0
07C0
0780
ENDCHAR
STARTCHAR Z
ENCODING 90
SWIDTH 507 0
DWIDTH 15 0
BBX 13 21 1 0
BITMAP
FFF8
FFF8
FFF8
FFF8
01F8
01F0
03E0
07E0
07C0
0FC0
0F80
1F80
1F00
3F00
3E00
7E00
7C00
FFF8
FFF8
FFF8
FFF8
ENDCHAR
STARTCHAR bracketleft
ENCODING 91
SWIDTH 239 0
DWIDTH 7 0
BBX 6 28 1 -5
BITMAP
78
FC
F8
F0
F0
F0
F0
F0
F0
F0
F0
F0
F0
F0
F0
F0
F0
F0
F0
F0
F0
F0
F0
F0
F0
F8
FC
78
ENDCHAR
STARTCHAR backslash
ENCODING 92
SWIDTH 289 0
DWIDTH 9 0
BBX 9 21 0 0
BITMAP
E000
F000
F000
7000
7800
7800
7800
3800
3C00
3C00
3C00
1C00
1E00
1E00
1E00
0E00
0F00
0F00
0F00
0700
0780
ENDCHAR
STARTCHAR bracketright
ENCODING 93
SWIDTH 239 0
DWIDTH 7 0
BBX 5 28 1 -5
BITMAP
F8
F8
F8
78
78
78
78
78
78
78
78
78
78
78
78
78
78
78
78
78
78
78
78
78
78
F8
F8
F8
ENDCHAR
STARTCHAR asciicircum
ENCODING 94
SWIDTH 360 0
DWIDTH 11 0
BBX 9 11 1 10
BITMAP
1C00
1C00
3E00
3E00
3600
7700
7700
6700
E380
E380
C380
ENDCHAR
STARTCHAR underscore
ENCODING 95
SWIDTH 427 0
DWIDTH 13 0
BBX 13 3 0 -4
BITMAP
FFF8
FFF8
FFF8
ENDCHAR
STARTCHAR grave
ENCODING 96
SWIDTH 256 0
DWIDTH 8 0
BBX 6 5 1 17
BITMAP
F0
70
78
38
1C
ENDCHAR
STARTCHAR a
ENCODING 97
SWIDTH 481 0
DWIDTH 14 0
BBX 12 16 1 0
BITMAP
1F80
7FC0
7FE0
7FE0
21F0
01F0
0FF0
3FF0
7FF0
F9F0
F1F0
F1F0
F1F0
FFF0
7FF0
3CE0
ENDCHAR
STARTCHAR b
ENCODING 98
SWIDTH 482 0
DWIDTH 14 0
BBX 12 23 1 0
BITMAP
7800
F800
F800
F800
F800
F800
F800
FB80
FFE0
FFE0
FFF0
F9F0
F8F0
F8F0
F8F0
F8F0
F8F0
F8F0
F9F0
FFF0
FFE0
F7E0
73C0
ENDCHAR
STARTCHAR c
ENCODING 99
SWIDTH 408 0
DWIDTH 12 0
BBX 11 16 1 0
BITMAP
0F80
3FE0
7FE0
7FE0
F840
F800
F800
F800
F800
F800
F800
F840
7FE0
7FE0
3FE0
0F80
ENDCHAR
STARTCHAR d
ENCODING 100
SWIDTH 481 0
DWIDTH 14 0
BBX 12 23 1 0
BITMAP
00F0
00F0
00F0
00F0
00F0
00F0
00F0
1EF0
3FF0
7FF0
7FF0
F8F0
F8F0
F8F0
F8F0
F8F0
F8F0
F8F0
F9F0
7FF0
7FF0
3EF0
1CF0
ENDCHAR
STARTCHAR e
ENCODING 101
SWIDTH 454 0
DWIDTH 14 0
BBX 12 16 1 0
BITMAP
0F80
3FC0
7FE0
79E0
F8E0
F8F0
F0F0
FFF0
FFF0
FFE0
F800
F840
7FE0
7FE0
3FE0
0FC0
ENDCHAR
STARTCHAR f
ENCODING 102
SWIDTH 286 0
DWIDTH 9 0
BBX 8 23 1 0
BITMAP
1E
3F
7F
7F
78
78
78
FE
FE
FE
FE
78
78
78
78
78
78
78
78
78
78
78
78
ENDCHAR
STARTCHAR g
ENCODING 103
SWIDTH 471 0
DWIDTH 14 0
BBX 13 22 1 -6
BITMAP
1FF0
3FF8
7FF0
79E0
F1E0
F1E0
71E0
7FE0
3FC0
3F80
7800
7800
7F00
7FC0
3FE0
7FF0
F0F0
F0F0
F0F0
FFE0
7FE0
1F80
ENDCHAR
STARTCHAR h
ENCODING 104
SWIDTH 485 0
DWIDTH 15 0
BBX 11 23 2 0
BITMAP
F000
F000
F000
F000
F000
F000
F000
F3C0
FFE0
FFE0
FFE0
F1E0
F1E0
F1E0
F1E0
F1E0
F1E0
F1E0
F1E0
F1E0
F1E0
F1E0
F1E0
ENDCHAR
STARTCHAR i
ENCODING 105
SWIDTH 254 0
DWIDTH 8 0
BBX 4 21 2 0
BITMAP
F0
F0
F0
F0
00
F0
F0
F0
F0
F0
F0
F0
F0
F0
F0
F0
F0
F0
F0
F0
F0
ENDCHAR
STARTCHAR j
ENCODING 106
SWIDTH 249 0
DWIDTH 7 0
BBX 7 27 -1 -6
BITMAP
1E
1E
1E
1E
00
1E
1E
1E
1E
1E
1E
1E
1E
1E
1E
1E
1E
1E
1E
1E
1E
1E
3E
FE
FE
FC
78
ENDCHAR
STARTCHAR k
ENCODING 107
SWIDTH 452 0
DWIDTH 14 0
BBX 11 23 2 0
BITMAP
F000
F000
F000
F000
F000
F000
F000
F1E0
F3E0
F3C0
F7C0
F780
F780
FF80
FF00
FF00
F780
F780
F7C0
F3C0
F3E0
F1E0
F1E0
ENDCHAR
STARTCHAR l
ENCODING 108
SWIDTH 270 0
DWIDTH 8 0
BBX 7 23 1 0
BITMAP
78
F8
F8
F8
F8
F8
F8
F8
F8
F8
F8
F8
F8
F8
F8
F8
F8
F8
F8
7E
7E
7E
3C
ENDCHAR
STARTCHAR m
ENCODING 109
SWIDTH 720 0
DWIDTH 22 0
BBX 19 16 1 0
BITMAP
71E3C0
FFFFE0
FFFFE0
FDFBE0
F8F1E0
F8F1E0
F8F1E0
F8F1E0
F8F1E0
F8F1E0
F8F1E0
F8F1E0
F8F1E0
F8F1E0
F8F1E0
78F1E0
ENDCHAR
STARTCHAR n
ENCODING 110
SWIDTH 482 0
DWIDTH 14 0
BBX 12 16 1 0
BITMAP
71E0
FFF0
FFF0
FDF0
F8F0
F8F0
F8F0
F8F0
F8F0
F8F0
F8F0
F8F0
F8F0
F8F0
F8F0
78F0
ENDCHAR
STARTCHAR o
ENCODING 111
SWIDTH 477 0
DWIDTH 14 0
BBX 12 16 1 0
BITMAP
0F80
3FC0
7FE0
7FF0
F9F0
F8F0
F8F0
F8F0
F8F0
F8F0
F8F0
F9F0
7FF0
7FE0
3FC0
0F80
ENDCHAR
STARTCHAR p
ENCODING 112
SWIDTH 484 0
DWIDTH 15 0
BBX 12 22 1 -6
BITMAP
73C0
FFE0
FFE0
FFF0
79F0
78F0
78F0
78F0
78F0
78F0
78F0
79F0
7FF0
7FE0
7FE0
7BC0
7800
7800
7800
7800
7800
7800
ENDCHAR
STARTCHAR q
ENCODING 113
SWIDTH 481 0
DWIDTH 14 0
BBX 12 22 1 -6
BITMAP
1CF0
3EF0
7FF0
7FF0
F9F0
F8F0
F8F0
F8F0
F8F0
F8F0
F8F0
F8F0
7FF0
7FF0
3FF0
1EF0
00F0
00F0
00F0
00F0
00F0
00F0
ENDCHAR
STARTCHAR r
ENCODING 114
SWIDTH 337 0
DWIDTH 10 0
BBX 9 16 1 0
BITMAP
7300
FF80
FF80
7F80
7C00
7800
7800
7800
7800
7800
7800
7800
7800
7800
7800
7800
ENDCHAR
STARTCHAR s
ENCODING 115
SWIDTH 353 0
DWIDTH 11 0
BBX 9 16 1 0
BITMAP
3F00
7F80
FF80
FF00
F000
F000
FC00
7E00
3F00
0F80
0780
4F80
FF80
FF80
FF00
7C00
ENDCHAR
STARTCHAR t
ENCODING 116
SWIDTH 298 0
DWIDTH 9 0
BBX 8 20 1 0
BITMAP
78
78
78
78
FE
FE
FE
FE
78
78
78
78
78
78
78
78
7C
7E
7F
3E
ENDCHAR
STARTCHAR u
ENCODING 117
SWIDTH 482 0
DWIDTH 14 0
BBX 12 16 1 0
BITMAP
78F0
F9F0
F9F0
F9F0
F9F0
F9F0
F9F0
F9F0
F9F0
F9F0
F9F0
F9F0
FFF0
7FF0
7EF0
3CF0
ENDCHAR
STARTCHAR v
ENCODING 118
SWIDTH 412 0
DWIDTH 12 0
BBX 12 16 0 0
BITMAP
F0F0
F8F0
78F0
79F0
79E0
79E0
3DE0
3DE0
3DC0
3DC0
1FC0
1FC0
1F80
1F80
0F80
0F00
ENDCHAR
STARTCHAR w
ENCODING 119
SWIDTH 616 0
DWIDTH 18 0
BBX 18 16 0 0
BITMAP
71E3C0
F1E3C0
79F3C0
79F3C0
79F380
79F380
3BF380
3BB780
3BBF00
3B3F00
1B3F00
1B1F00
1F1F00
1F1E00
1E1E00
0E0E00
ENDCHAR
STARTCHAR x
ENCODING 120
SWIDTH 404 0
DWIDTH 12 0
BBX 12 16 0 0
BITMAP
F8F0
79F0
79E0
3DE0
3FC0
1FC0
1F80
0F80
0F80
1F80
1FC0
3FC0
79E0
79E0
F9F0
F9F0
ENDCHAR
STARTCHAR y
ENCODING 121
SWIDTH 408 0
DWIDTH 12 0
BBX 12 22 0 -6
BITMAP
F0F0
F8F0
78F0
79E0
79E0
79E0
3DE0
3DC0
3FC0
1FC0
1FC0
1F80
1F80
0F80
0780
0700
0F00
0F00
0F00
1E00
1E00
1E00
ENDCHAR
STARTCHAR z
ENCODING 122
SWIDTH 405 0
DWIDTH 12 0
BBX 10 16 1 0
BITMAP
FFC0
FFC0
FFC0
FFC0
0780
0F80
1F00
1F00
3E00
3C00
7C00
7800
FFC0
FFC0
FFC0
FFC0
ENDCHAR
STARTCHAR bar
ENCODING 124
SWIDTH 200 0
DWIDTH 6 0
BBX 4 27 1 -4
BITMAP
F0
F0
F0
F0
F0
F0
F0
F0
F0
F0
F0
F0
F0
F0
F0
F0
F0
F0
F0
F0
F0
F0
F0
F0
F0
F0
F0
ENDCHAR
STARTCHAR uni00A0
ENCODING 160
SWIDTH 137 0
DWIDTH 4 0
BBX 1 1 0 0
BITMAP
00
ENDCHAR
STARTCHAR cent
ENCODING 162
SWIDTH 440 0
DWIDTH 13 0
BBX 13 13 0 0
BITMAP
0200
0700
0700
0F80
0F80
1FC0
1FC0
3FE0
3FE0
7FF0
7FF0
FFF8
FFF8
ENDCHAR
STARTCHAR sterling
ENCODING 163
SWIDTH 440 0
DWIDTH 13 0
BBX 13 13 0 0
BITMAP
0008
0018
0038
0078
00F8
01F8
03F8
07F8
0FF8
1FF8
3FF8
7FF8
FFF8
ENDCHAR
STARTCHAR currency
ENCODING 164
SWIDTH 440 0
DWIDTH 13 0
BBX 13 13 0 0
BITMAP
8000
C000
E000
F000
F800
FC00
FE00
FF00
FF80
FFC0
FFE0
FFF0
FFF8
ENDCHAR
STARTCHAR yen
ENCODING 165
SWIDTH 470 0
DWIDTH 14 0
BBX 14 10 0 0
BITMAP
0780
0FC0
1FE0
1FE0
3FF0
3FF0
7FF8
7FF8
FFFC
FFFC
ENDCHAR
STARTCHAR brokenbar
ENCODING 166
SWIDTH 470 0
DWIDTH 14 0
BBX 14 12 0 0
BITMAP
FE00
FE00
FE00
FE00
FE00
FE00
FE00
FE00
FE00
FE00
FE00
FFFC
ENDCHAR
STARTCHAR section
ENCODING 167
SWIDTH 470 0
DWIDTH 14 0
BBX 14 12 0 0
BITMAP
C000
C00C
C30C
C30C
C33C
F33C
F3FC
F3FC
F3FC
FFFC
FFFC
FFFC
ENDCHAR
STARTCHAR onequarter
ENCODING 188
SWIDTH 586 0
DWIDTH 18 0
BBX 16 21 1 0
BITMAP
7818
F838
B830
3830
3860
3860
38E0
38C0
38C0
398E
399E
3B9E
033E
073E
066E
066E
0CFF
0CFF
1C0E
180E
180E
ENDCHAR
STARTCHAR onehalf
ENCODING 189
SWIDTH 641 0
DWIDTH 19 0
BBX 17 21 1 0
BITMAP
781800
F83800
F83000
383000
386000
386000
38E000
38C000
38C000
399F00
39BF80
3B9180
3B0180
030380
060380
060700
0C0E00
0C0E00
1C1C00
183F80
183F80
ENDCHAR
STARTCHAR threequarters
ENCODING 190
SWIDTH 627 0
DWIDTH 19 0
BBX 18 21 0 0
BITMAP
7C0600
7E0E00
4E0C00
061C00
0E1800
3C1800
3E3000
063000
077000
076380
FE6780
7CC780
00CF80
01DF80
019B80
03BB80
033FC0
033FC0
060380
060380
0E0380
ENDCHAR
STARTCHAR uni02BC
ENCODING 700
SWIDTH 90 0
DWIDTH 3 0
BBX 4 6 -1 16
BITMAP
70
70
70
70
60
E0
ENDCHAR
STARTCHAR uni1E0C
ENCODING 7692
SWIDTH 577 0
DWIDTH 17 0
BBX 14 27 2 -6
BITMAP
FF80
FFE0
FFF0
FFF8
F0F8
F07C
F07C
F07C
F07C
F07C
F07C
F07C
F07C
F07C
F07C
F07C
F0F8
FFF8
FFF0
FFE0
FF80
0000
0000
0F00
0F00
0F00
0F00
ENDCHAR
STARTCHAR uni1E0D
ENCODING 7693
SWIDTH 481 0
DWIDTH 14 0
BBX 12 29 1 -6
BITMAP
00F0
00F0
00F0
00F0
00F0
00F0
00F0
1EF0
3FF0
7FF0
7FF0
F8F0
F8F0
F8F0
F8F0
F8F0
F8F0
F8F0
F9F0
7FF0
7FF0
3EF0
1CF0
0000
0000
0700
0F00
0F00
0700
ENDCHAR
STARTCHAR uni1E24
ENCODING 7716
SWIDTH 600 0
DWIDTH 18 0
BBX 14 27 2 -6
BITMAP
F03C
F03C
F03C
F03C
F03C
F03C
F03C
F03C
FFFC
FFFC
FFFC
FFFC
F03C
F03C
F03C
F03C
F03C
F03C
F03C
F03C
F03C
0000
0000
0780
0780
0780
0780
ENDCHAR
STARTCHAR uni1E25
ENCODING 7717
SWIDTH 485 0
DWIDTH 15 0
BBX 11 29 2 -6
BITMAP
F000
F000
F000
F000
F000
F000
F000
F3C0
FFE0
FFE0
FFE0
F1E0
F1E0
F1E0
F1E0
F1E0
F1E0
F1E0
F1E0
F1E0
F1E0
F1E0
F1E0
0000
0000
0E00
1E00
1E00
0E00
ENDCHAR
STARTCHAR uni1E44
ENCODING 7748
SWIDTH 590 0
DWIDTH 18 0
BBX 14 27 2 0
BITMAP
0780
0780
0780
0780
0000
0000
E03C
F03C
F83C
F83C
FC3C
FC3C
FE3C
FE3C
FF3C
FF3C
F7BC
F7BC
F3FC
F3FC
F1FC
F0FC
F0FC
F07C
F07C
F03C
F03C
ENDCHAR
STARTCHAR uni1E45
ENCODING 7749
SWIDTH 482 0
DWIDTH 14 0
BBX 12 21 1 0
BITMAP
0F00
0F00
0F00
0F00
0000
71E0
FFF0
FFF0
FDF0
F8F0
F8F0
F8F0
F8F0
F8F0
F8F0
F8F0
F8F0
F8F0
F8F0
F8F0
78F0
ENDCHAR
STARTCHAR uni1E5A
ENCODING 7770
SWIDTH 513 0
DWIDTH 15 0
BBX 13 27 2 -6
BITMAP
FF80
FFC0
FFE0
FFF0
F1F0
F1F0
F1F0
F1F0
F1E0
FFE0
FFC0
FFC0
FFC0
F3E0
F1E0
F1F0
F1F0
F0F0
F0F0
F0F8
F0F8
0000
0000
0F00
0F00
0F00
0F00
ENDCHAR
STARTCHAR uni1E5B
ENCODING 7771
SWIDTH 337 0
DWIDTH 10 0
BBX 9 22 1 -6
BITMAP
7300
FF80
FF80
7F80
7C00
7800
7800
7800
7800
7800
7800
7800
7800
7800
7800
7800
0000
0000
7800
7800
7800
7800
ENDCHAR
STARTCHAR uni1E62
ENCODING 7778
SWIDTH 437 0
DWIDTH 13 0
BBX 12 27 1 -6
BITMAP
1F80
3FE0
7FE0
FFE0
F840
F800
F800
FC00
7E00
7F80
3FC0
0FE0
07E0
01F0
01F0
01F0
E3F0
FFE0
FFE0
FFC0
3F00
0000
0000
0E00
0F00
0F00
0E00
ENDCHAR
STARTCHAR uni1E63
ENCODING 7779
SWIDTH 353 0
DWIDTH 11 0
BBX 9 22 1 -6
BITMAP
3F00
7F80
FF80
FF00
F000
F000
FC00
7E00
3F00
0F80
0780
4F80
FF80
FF80
FF00
7C00
0000
0000
1C00
3C00
3C00
1C00
ENDCHAR
STARTCHAR uni1E6C
ENCODING 7788
SWIDTH 454 0
DWIDTH 14 0
BBX 13 27 0 -6
BITMAP
FFF8
FFF8
FFF8
FFF8
0F80
0F80
0F80
0F80
0F80
0F80
0F80
0F80
0F80
0F80
0F80
0F80
0F80
0F80
0F80
0F80
0780
0000
0000
0780
0780
0780
0780
ENDCHAR
STARTCHAR uni1E6D
ENCODING 7789
SWIDTH 298 0
DWIDTH 9 0
BBX 8 26 1 -6
BITMAP
10
78
78
78
FE
FE
FE
FE
78
78
78
78
78
78
78
78
7C
7E
7F
3E
00
00
1C
3C
3C
1C
ENDCHAR
STARTCHAR Wgrave
ENCODING 7808
SWIDTH 752 0
DWIDTH 23 0
BBX 22 28 0 0
BITMAP
01E000
01E000
00F000
007000
003800
000000
000000
F8783C
F87C3C
F87C3C
787C3C
787C3C
78FC78
78FC78
7CFE78
3CFE78
3CEE78
3CEE70
3DEE70
3DCE70
1DCFF0
1DC7F0
1FC7E0
1FC7E0
0F87E0
0F87E0
0F87E0
0F83C0
ENDCHAR
STARTCHAR wgrave
ENCODING 7809
SWIDTH 616 0
DWIDTH 18 0
BBX 18 22 0 0
BITMAP
078000
038000
03C000
01C000
006000
000000
71E3C0
F1E3C0
79F3C0
79F3C0
79F380
79F380
3BF380
3BB780
3BBF00
3B3F00
1B3F00
1B1F00
1F1F00
1F1E00
1E1E00
0E0E00
ENDCHAR
STARTCHAR Wacute
ENCODING 7810
SWIDTH 752 0
DWIDTH 23 0
BBX 22 28 0 0
BITMAP
000400
001E00
001C00
003C00
003800
002000
000000
F8783C
F87C3C
F87C3C
787C3C
787C3C
78FC78
78FC78
7CFE78
3CFE78
3CEE78
3CEE70
3DEE70
3DCE70
1DCFF0
1DC7F0
1FC7E0
1FC7E0
0F87E0
0F87E0
0F87E0
0F83C0
ENDCHAR
STARTCHAR wacute
ENCODING 7811
SWIDTH 616 0
DWIDTH 18 0
BBX 18 22 0 0
BITMAP
003800
007800
00F000
00E000
008000
000000
71E3C0
F1E3C0
79F3C0
79F3C0
79F380
79F380
3BF380
3BB780
3BBF00
3B3F00
1B3F00
1B1F00
1F1F00
1F1E00
1E1E00
0E0E00
ENDCHAR
STARTCHAR Wdieresis
ENCODING 7812
SWIDTH 752 0
DWIDTH 23 0
BBX 22 27 0 0
BITMAP
01CE00
01EE00
01EE00
01CE00
000000
000000
F8783C
F87C3C
F87C3C
787C3C
787C3C
78FC78
78FC78
7CFE78
3CFE78
3CEE78
3CEE70
3DEE70
3DCE70
1DCFF0
1DC7F0
1FC7E0
1FC7E0
0F87E0
0F87E0
0F87E0
0F83C0
ENDCHAR
STARTCHAR wdieresis
ENCODING 7813
SWIDTH 616 0
DWIDTH 18 0
BBX 18 21 0 0
BITMAP
073800
07B800
07B800
073800
000000
71E3C0
F1E3C0
79F3C0
79F3C0
79F380
79F380
3BF380
3BB780
3BBF00
3B3F00
1B3F00
1B1F00
1F1F00
1F1E00
1E1E00
0E0E00
ENDCHAR
STARTCHAR uni1E92
ENCODING 7826
SWIDTH 507 0
DWIDTH 15 0
BBX 13 27 1 -6
BITMAP
FFF8
FFF8
FFF8
FFF8
01F8
01F0
03E0
07E0
07C0
0FC0
0F80
1F80
1F00
3F00
3E00
7E00
7C00
FFF8
FFF8
FFF8
FFF8
0000
0000
0700
0780
0780
0700
ENDCHAR
STARTCHAR uni1E93
ENCODING 7827
SWIDTH 405 0
DWIDTH 12 0
BBX 10 22 1 -6
BITMAP
FFC0
FFC0
FFC0
FFC0
0780
0F80
1F00
1F00
3E00
3C00
7C00
7800
FFC0
FFC0
FFC0
FFC0
0000
0000
1E00
1E00
1E00
1E00
ENDCHAR
STARTCHAR uni1E9E
ENCODING 7838
SWIDTH 593 0
DWIDTH 18 0
BBX 16 21 1 0
BITMAP
07FC
1FFE
3FFE
7FFE
7C3E
7C7C
F87C
F8F8
F8F8
F8FC
F8FE
F83F
F81F
F80F
F80F
F81F
F91F
FBFF
FBFE
FBFC
78F8
ENDCHAR
STARTCHAR uni1EA0
ENCODING 7840
SWIDTH 505 0
DWIDTH 15 0
BBX 15 27 0 -6
BITMAP
07C0
07E0
0FE0
0FE0
0FE0
0EF0
1EF0
1EF0
1EF0
1E78
3C78
3C78
3C78
3FF8
7FFC
7FFC
7FFC
783C
F83E
F83E
F01E
0000
0000
03C0
03C0
03C0
03C0
ENDCHAR
STARTCHAR uni1EA1
ENCODING 7841
SWIDTH 481 0
DWIDTH 14 0
BBX 12 22 1 -6
BITMAP
1F80
7FC0
7FE0
7FE0
21F0
01F0
0FF0
3FF0
7FF0
F9F0
F1F0
F1F0
F1F0
FFF0
7FF0
3CF0
0000
0000
0F00
0F00
0F00
0F00
ENDCHAR
STARTCHAR uni1EA2
ENCODING 7842
SWIDTH 505 0
DWIDTH 15 0
BBX 15 28 0 0
BITMAP
03C0
03E0
0060
00E0
01C0
0000
0000
07C0
07E0
0FE0
0FE0
0FE0
0EF0
1EF0
1EF0
1EF0
1E78
3C78
3C78
3C78
3FF8
7FFC
7FFC
7FFC
783C
F83E
F83E
F01E
ENDCHAR
STARTCHAR uni1EA3
ENCODING 7843
SWIDTH 481 0
DWIDTH 14 0
BBX 12 23 1 0
BITMAP
0780
0FC0
01C0
0180
0780
0000
0000
1F80
7FC0
7FE0
7FE0
21F0
01F0
0FF0
3FF0
7FF0
F9F0
F1F0
F1F0
F1F0
FFF0
7FF0
3CE0
ENDCHAR
STARTCHAR uni1EA4
ENCODING 7844
SWIDTH 491 0
DWIDTH 15 0
BBX 15 30 0 0
BITMAP
001C
001C
0038
03B0
07C0
07C0
0EE0
0C40
0000
07C0
07E0
0FE0
0FE0
0FE0
0EF0
1EF0
1EF0
1EF0
1E78
3C78
3C78
3C78
3FF8
7FFC
7FFC
7FFC
783C
F83E
F83E
F01E
ENDCHAR
STARTCHAR uni1EA5
ENCODING 7845
SWIDTH 445 0
DWIDTH 13 0
BBX 13 26 1 0
BITMAP
0038
0078
0070
00E0
00E0
0E00
1F00
1B00
3B80
0000
1F80
7FC0
7FE0
7FE0
21F0
01F0
0FF0
3FF0
7FF0
F9F0
F1F0
F1F0
F1F0
FFF0
7FF0
3CE0
ENDCHAR
STARTCHAR uni1EA6
ENCODING 7846
SWIDTH 491 0
DWIDTH 15 0
BBX 15 30 0 0
BITMAP
00F0
0070
0030
07B8
07C0
0FC0
0EE0
0000
0000
07C0
07E0
0FE0
0FE0
0FE0
0EF0
1EF0
1EF0
1EF0
1E78
3C78
3C78
3C78
3FF8
7FFC
7FFC
7FFC
783C
F83E
F83E
F01E
ENDCHAR
STARTCHAR uni1EA7
ENCODING 7847
SWIDTH 445 0
DWIDTH 13 0
BBX 12 26 1 0
BITMAP
0780
0780
03C0
01C0
00E0
0E00
1F00
1B00
3B80
0000
1F80
7FC0
7FE0
7FE0
21F0
01F0
0FF0
3FF0
7FF0
F9F0
F1F0
F1F0
F1F0
FFF0
7FF0
3CE0
ENDCHAR
STARTCHAR uni1EA8
ENCODING 7848
SWIDTH 491 0
DWIDTH 15 0
BBX 15 30 0 0
BITMAP
0078
00F8
0018
0338
0780
07C0
0EE0
0CE0
0000
07C0
07E0
0FE0
0FE0
0FE0
0EF0
1EF0
1EF0
1EF0
1E78
3C78
3C78
3C78
3FF8
7FFC
7FFC
7FFC
783C
F83E
F83E
F01E
ENDCHAR
STARTCHAR uni1EA9
ENCODING 7849
SWIDTH 445 0
DWIDTH 13 0
BBX 13 27 1 0
BITMAP
00F0
01F8
0038
0038
0070
00E0
0E00
1F00
1B00
3B80
0000
1F80
7FC0
7FE0
7FE0
21F0
01F0
0FF0
3FF0
7FF0
F9F0
F1F0
F1F0
F1F0
FFF0
7FF0
3CE0
ENDCHAR
STARTCHAR uni1EAA
ENCODING 7850
SWIDTH 491 0
DWIDTH 15 0
BBX 15 31 0 0
BITMAP
0E20
0FF0
1FE0
19C0
0000
0780
07C0
0EE0
0840
0000
07C0
07E0
0FE0
0FE0
0FE0
0EF0
1EF0
1EF0
1EF0
1E78
3C78
3C78
3C78
3FF8
7FFC
7FFC
7FFC
783C
F83E
F83E
F01E
ENDCHAR
STARTCHAR uni1EAB
ENCODING 7851
SWIDTH 445 0
DWIDTH 13 0
BBX 12 26 1 0
BITMAP
1CC0
3FC0
3FC0
3380
0000
0E00
1F00
3B80
3180
0000
1F80
7FC0
7FE0
7FE0
21F0
01F0
0FF0
3FF0
7FF0
F9F0
F1F0
F1F0
F1F0
FFF0
7FF0
3CE0
ENDCHAR
STARTCHAR uni1EAC
ENCODING 7852
SWIDTH 505 0
DWIDTH 15 0
BBX 15 33 0 -6
BITMAP
0380
07C0
07C0
0EE0
0820
0000
07C0
07E0
0FE0
0FE0
0FE0
0EF0
1EF0
1EF0
1EF0
1E78
3C78
3C78
3C78
3FF8
7FFC
7FFC
7FFC
783C
F83E
F83E
F01E
0000
0000
03C0
03C0
03C0
03C0
ENDCHAR
STARTCHAR uni1EAD
ENCODING 7853
SWIDTH 481 0
DWIDTH 14 0
BBX 12 27 1 -6
BITMAP
0F00
0F00
1F80
39C0
0000
1F80
7FC0
7FE0
7FE0
21F0
01F0
0FF0
3FF0
7FF0
F9F0
F1F0
F1F0
F1F0
FFF0
7FF0
3CF0
0000
0000
0F00
0F00
0F00
0F00
ENDCHAR
STARTCHAR uni1EAE
ENCODING 7854
SWIDTH 491 0
DWIDTH 15 0
BBX 15 31 0 0
BITMAP
0040
01E0
01C0
0380
0B60
1C60
0FE0
07C0
0000
0000
07C0
07E0
0FE0
0FE0
0FE0
0EF0
1EF0
1EF0
1EF0
1E78
3C78
3C78
3C78
3FF8
7FFC
7FFC
7FFC
783C
F83E
F83E
F01E
ENDCHAR
STARTCHAR uni1EAF
ENCODING 7855
SWIDTH 481 0
DWIDTH 14 0
BBX 12 28 1 0
BITMAP
0080
03C0
0380
0700
0700
0400
0000
30C0
3FC0
1F80
0F00
0000
1F80
7FC0
7FE0
7FE0
21F0
01F0
0FF0
3FF0
7FF0
F9F0
F1F0
F1F0
F1F0
FFF0
7FF0
3CE0
ENDCHAR
STARTCHAR uni1EB0
ENCODING 7856
SWIDTH 491 0
DWIDTH 15 0
BBX 15 31 0 0
BITMAP
0400
0F00
0700
0300
09E0
1C60
0FE0
07C0
0000
0000
07C0
07E0
0FE0
0FE0
0FE0
0EF0
1EF0
1EF0
1EF0
1E78
3C78
3C78
3C78
3FF8
7FFC
7FFC
7FFC
783C
F83E
F83E
F01E
ENDCHAR
STARTCHAR uni1EB1
ENCODING 7857
SWIDTH 481 0
DWIDTH 14 0
BBX 12 28 1 0
BITMAP
1000
3C00
1C00
1E00
0E00
0200
0000
30C0
3FC0
1F80
0F00
0000
1F80
7FC0
7FE0
7FE0
21F0
01F0
0FF0
3FF0
7FF0
F9F0
F1F0
F1F0
F1F0
FFF0
7FF0
3CE0
ENDCHAR
STARTCHAR uni1EB2
ENCODING 7858
SWIDTH 491 0
DWIDTH 15 0
BBX 15 31 0 0
BITMAP
0780
07C0
00C0
0380
0860
1C60
0FE0
07C0
0000
0000
07C0
07E0
0FE0
0FE0
0FE0
0EF0
1EF0
1EF0
1EF0
1E78
3C78
3C78
3C78
3FF8
7FFC
7FFC
7FFC
783C
F83E
F83E
F01E
ENDCHAR
STARTCHAR uni1EB3
ENCODING 7859
SWIDTH 481 0
DWIDTH 14 0
BBX 12 28 1 0
BITMAP
0780
0FC0
01C0
01C0
0380
0700
0000
30C0
3FC0
1F80
0F00
0000
1F80
7FC0
7FE0
7FE0
21F0
01F0
0FF0
3FF0
7FF0
F9F0
F1F0
F1F0
F1F0
FFF0
7FF0
3CE0
ENDCHAR
STARTCHAR uni1EB4
ENCODING 7860
SWIDTH 491 0
DWIDTH 15 0
BBX 15 31 0 0
BITMAP
0E30
0FF0
1FE0
19C0
0000
0860
1C60
0FE0
07C0
0000
07C0
07E0
0FE0
0FE0
0FE0
0EF0
1EF0
1EF0
1EF0
1E78
3C78
3C78
3C78
3FF8
7FFC
7FFC
7FFC
783C
F83E
F83E
F01E
ENDCHAR
STARTCHAR uni1EB5
ENCODING 7861
SWIDTH 481 0
DWIDTH 14 0
BBX 12 27 1 0
BITMAP
1CC0
3FC0
7FC0
6380
0000
0000
30C0
3FC0
1F80
0F00
0000
1F80
7FC0
7FE0
7FE0
21F0
01F0
0FF0
3FF0
7FF0
F9F0
F1F0
F1F0
F1F0
FFF0
7FF0
3CE0
ENDCHAR
STARTCHAR uni1EB6
ENCODING 7862
SWIDTH 505 0
DWIDTH 15 0
BBX 15 33 0 -6
BITMAP
0C60
0FE0
0FE0
07C0
0000
0000
07C0
07E0
0FE0
0FE0
0FE0
0EF0
1EF0
1EF0
1EF0
1E78
3C78
3C78
3C78
3FF8
7FFC
7FFC
7FFC
783C
F83E
F83E
F01E
0000
0000
03C0
03C0
03C0
03C0
ENDCHAR
STARTCHAR uni1EB7
ENCODING 7863
SWIDTH 481 0
DWIDTH 14 0
BBX 12 27 1 -6
BITMAP
30C0
3FC0
1F80
0F00
0000
1F80
7FC0
7FE0
7FE0
21F0
01F0
0FF0
3FF0
7FF0
F9F0
F1F0
F1F0
F1F0
FFF0
7FF0
3CF0
0000
0000
0F00
0F00
0F00
0F00
ENDCHAR
STARTCHAR uni1EB8
ENCODING 7864
SWIDTH 457 0
DWIDTH 14 0
BBX 11 27 2 -6
BITMAP
FFC0
FFE0
FFE0
FFC0
F000
F000
F000
F000
FFC0
FFC0
FFC0
FFC0
F000
F000
F000
F000
F000
FFC0
FFE0
FFE0
FFC0
0000
0000
1E00
1E00
1E00
1E00
ENDCHAR
STARTCHAR uni1EB9
ENCODING 7865
SWIDTH 454 0
DWIDTH 14 0
BBX 12 22 1 -6
BITMAP
0F80
3FC0
7FE0
79E0
F8E0
F8F0
F0F0
FFF0
FFF0
FFE0
F800
F840
7FE0
7FE0
3FE0
0FC0
0000
0000
0F00
0F00
0F00
0F00
ENDCHAR
STARTCHAR uni1EBA
ENCODING 7866
SWIDTH 457 0
DWIDTH 14 0
BBX 11 28 2 0
BITMAP
0F00
1F80
0380
0380
0700
0000
0000
FFC0
FFE0
FFE0
FFC0
F000
F000
F000
F000
FFC0
FFC0
FFC0
FFC0
F000
F000
F000
F000
F000
FFC0
FFE0
FFE0
FFC0
ENDCHAR
STARTCHAR uni1EBB
ENCODING 7867
SWIDTH 454 0
DWIDTH 14 0
BBX 12 23 1 0
BITMAP
0F00
0F80
01C0
0380
0700
0000
0000
0F80
3FC0
7FE0
79E0
F8E0
F8F0
F0F0
FFF0
FFF0
FFE0
F800
F840
7FE0
7FE0
3FE0
0FC0
ENDCHAR
STARTCHAR uni1EBC
ENCODING 7868
SWIDTH 457 0
DWIDTH 14 0
BBX 11 26 2 0
BITMAP
3FC0
7F80
7F00
0000
0000
FFC0
FFE0
FFE0
FFC0
F000
F000
F000
F000
FFC0
FFC0
FFC0
FFC0
F000
F000
F000
F000
F000
FFC0
FFE0
FFE0
FFC0
ENDCHAR
STARTCHAR uni1EBD
ENCODING 7869
SWIDTH 454 0
DWIDTH 14 0
BBX 12 21 1 0
BITMAP
3CC0
3FC0
7FC0
6380
0000
0F80
3FC0
7FE0
79E0
F8E0
F8F0
F0F0
FFF0
FFF0
FFE0
F800
F840
7FE0
7FE0
3FE0
0FC0
ENDCHAR
STARTCHAR uni1EBE
ENCODING 7870
SWIDTH 443 0
DWIDTH 13 0
BBX 12 30 2 0
BITMAP
0070
0070
00E0
0EC0
1E80
3F00
3B80
2100
0000
FFC0
FFE0
FFE0
FFC0
F000
F000
F000
F000
FFC0
FFC0
FFC0
FFC0
F000
F000
F000
F000
F000
FFC0
FFE0
FFE0
FFC0
ENDCHAR
STARTCHAR uni1EBF
ENCODING 7871
SWIDTH 440 0
DWIDTH 13 0
BBX 14 27 1 0
BITMAP
0010
003C
0078
0070
00F0
00E0
0E00
1F00
1F80
3980
0000
0F80
3FC0
7FE0
79E0
F8E0
F8F0
F0F0
FFF0
FFF0
FFE0
F800
F840
7FE0
7FE0
3FE0
0FC0
ENDCHAR
STARTCHAR uni1EC0
ENCODING 7872
SWIDTH 443 0
DWIDTH 13 0
BBX 11 30 2 0
BITMAP
0380
01C0
01C0
1EE0
1F00
3F00
3B80
0000
0000
FFC0
FFE0
FFE0
FFC0
F000
F000
F000
F000
FFC0
FFC0
FFC0
FFC0
F000
F000
F000
F000
F000
FFC0
FFE0
FFE0
FFC0
ENDCHAR
STARTCHAR uni1EC1
ENCODING 7873
SWIDTH 440 0
DWIDTH 13 0
BBX 12 26 1 0
BITMAP
0780
0380
03C0
01C0
00E0
0E00
1F00
1F80
3B80
0000
0F80
3FC0
7FE0
79E0
F8E0
F8F0
F0F0
FFF0
FFF0
FFE0
F800
F840
7FE0
7FE0
3FE0
0FC0
ENDCHAR
STARTCHAR uni1EC2
ENCODING 7874
SWIDTH 443 0
DWIDTH 13 0
BBX 11 30 2 0
BITMAP
01C0
03E0
0060
0CE0
1E00
1F00
3B00
3180
0000
FFC0
FFE0
FFE0
FFC0
F000
F000
F000
F000
FFC0
FFC0
FFC0
FFC0
F000
F000
F000
F000
F000
FFC0
FFE0
FFE0
FFC0
ENDCHAR
STARTCHAR uni1EC3
ENCODING 7875
SWIDTH 440 0
DWIDTH 13 0
BBX 13 27 1 0
BITMAP
00F0
01F8
0038
0038
0078
0070
0E00
1F00
1F80
3980
0000
0F80
3FC0
7FE0
79E0
F8E0
F8F0
F0F0
FFF0
FFF0
FFE0
F800
F840
7FE0
7FE0
3FE0
0FC0
ENDCHAR
STARTCHAR uni1EC4
ENCODING 7876
SWIDTH 443 0
DWIDTH 13 0
BBX 11 31 2 0
BITMAP
3980
7F80
7F80
6700
0000
1E00
1F00
3B80
0000
0000
FFC0
FFE0
FFE0
FFC0
F000
F000
F000
F000
FFC0
FFC0
FFC0
FFC0
F000
F000
F000
F000
F000
FFC0
FFE0
FFE0
FFC0
ENDCHAR
STARTCHAR uni1EC5
ENCODING 7877
SWIDTH 440 0
DWIDTH 13 0
BBX 12 26 1 0
BITMAP
1CC0
3FC0
3FC0
3380
0000
0E00
1F00
1B80
3980
0000
0F80
3FC0
7FE0
79E0
F8E0
F8F0
F0F0
FFF0
FFF0
FFE0
F800
F840
7FE0
7FE0
3FE0
0FC0
ENDCHAR
STARTCHAR uni1EC6
ENCODING 7878
SWIDTH 457 0
DWIDTH 14 0
BBX 11 33 2 -6
BITMAP
0E00
1F00
1F00
3B80
2080
0000
FFC0
FFE0
FFE0
FFC0
F000
F000
F000
F000
FFC0
FFC0
FFC0
FFC0
F000
F000
F000
F000
F000
FFC0
FFE0
FFE0
FFC0
0000
0000
1E00
1E00
1E00
1E00
ENDCHAR
STARTCHAR uni1EC7
ENCODING 7879
SWIDTH 454 0
DWIDTH 14 0
BBX 12 27 1 -6
BITMAP
0F00
1F00
1F80
39C0
0000
0F80
3FC0
7FE0
79E0
F8E0
F8F0
F0F0
FFF0
FFF0
FFE0
F800
F840
7FE0
7FE0
3FE0
0FC0
0000
0000
0F00
0F00
0F00
0F00
ENDCHAR
STARTCHAR uni1EC8
ENCODING 7880
SWIDTH 262 0
DWIDTH 8 0
BBX 6 28 2 0
BITMAP
F0
F8
1C
38
70
00
00
F0
F0
F0
F0
F0
F0
F0
F0
F0
F0
F0
F0
F0
F0
F0
F0
F0
F0
F0
F0
F0
ENDCHAR
STARTCHAR uni1EC9
ENCODING 7881
SWIDTH 254 0
DWIDTH 8 0
BBX 6 23 2 0
BITMAP
F0
F8
1C
38
70
00
00
F0
F0
F0
F0
F0
F0
F0
F0
F0
F0
F0
F0
F0
F0
F0
F0
ENDCHAR
STARTCHAR uni1ECA
ENCODING 7882
SWIDTH 262 0
DWIDTH 8 0
BBX 4 27 2 -6
BITMAP
F0
F0
F0
F0
F0
F0
F0
F0
F0
F0
F0
F0
F0
F0
F0
F0
F0
F0
F0
F0
F0
00
00
F0
F0
F0
F0
ENDCHAR
STARTCHAR uni1ECB
ENCODING 7883
SWIDTH 254 0
DWIDTH 8 0
BBX 5 27 1 -6
BITMAP
78
78
78
78
00
78
78
78
78
78
78
78
78
78
78
78
78
78
78
78
78
00
00
70
F8
F8
70
ENDCHAR
STARTCHAR uni1ECC
ENCODING 7884
SWIDTH 599 0
DWIDTH 18 0
BBX 16 27 1 -6
BITMAP
07E0
1FF8
3FFC
3FFC
7C3E
7C3E
F81E
F81F
F81F
F81F
F81F
F81F
F81F
F81F
F81E
7C3E
7C3E
3FFC
3FFC
1FF8
07E0
0000
0000
03C0
03C0
03C0
03C0
ENDCHAR
STARTCHAR uni1ECD
ENCODING 7885
SWIDTH 477 0
DWIDTH 14 0
BBX 12 22 1 -6
BITMAP
0F80
3FC0
7FE0
7FF0
F9F0
F8F0
F8F0
F8F0
F8F0
F8F0
F8F0
F9F0
7FF0
7FE0
3FC0
0F80
0000
0000
0F00
0F00
0F00
0F00
ENDCHAR
STARTCHAR uni1ECE
ENCODING 7886
SWIDTH 599 0
DWIDTH 18 0
BBX 16 28 1 0
BITMAP
03E0
03F0
0070
0060
01C0
0000
0000
07E0
1FF8
3FFC
3FFC
7C3E
7C3E
F81E
F81F
F81F
F81F
F81F
F81F
F81F
F81F
F81E
7C3E
7C3E
3FFC
3FFC
1FF8
07E0
ENDCHAR
STARTCHAR uni1ECF
ENCODING 7887
SWIDTH 477 0
DWIDTH 14 0
BBX 12 23 1 0
BITMAP
0780
0FC0
01C0
01C0
0780
0000
0000
0F80
3FC0
7FE0
7FF0
F9F0
F8F0
F8F0
F8F0
F8F0
F8F0
F8F0
F9F0
7FF0
7FE0
3FC0
0F80
ENDCHAR
STARTCHAR uni1ED0
ENCODING 7888
SWIDTH 585 0
DWIDTH 18 0
BBX 16 30 1 0
BITMAP
000E
001C
001C
03B8
07C0
07E0
0EE0
0000
0000
07E0
1FF8
3FFC
3FFC
7C3E
7C3E
F81E
F81F
F81F
F81F
F81F
F81F
F81F
F81F
F81E
7C3E
7C3E
3FFC
3FFC
1FF8
07E0
ENDCHAR
STARTCHAR uni1ED1
ENCODING 7889
SWIDTH 463 0
DWIDTH 14 0
BBX 14 27 1 0
BITMAP
0008
003C
0078
0070
0070
00E0
0F00
0F00
1F80
39C0
0000
0F80
3FC0
7FE0
7FF0
F9F0
F8F0
F8F0
F8F0
F8F0
F8F0
F8F0
F9F0
7FF0
7FE0
3FC0
0F80
ENDCHAR
STARTCHAR uni1ED2
ENCODING 7890
SWIDTH 585 0
DWIDTH 18 0
BBX 16 30 1 0
BITMAP
0070
0070
0038
03D8
07C0
07E0
0EE0
0000
0000
07E0
1FF8
3FFC
3FFC
7C3E
7C3E
F81E
F81F
F81F
F81F
F81F
F81F
F81F
F81F
F81E
7C3E
7C3E
3FFC
3FFC
1FF8
07E0
ENDCHAR
STARTCHAR uni1ED3
ENCODING 7891
SWIDTH 463 0
DWIDTH 14 0
BBX 12 26 1 0
BITMAP
0780
03C0
01C0
01E0
00E0
0F00
0F00
1F80
39C0
0000
0F80
3FC0
7FE0
7FF0
F9F0
F8F0
F8F0
F8F0
F8F0
F8F0
F8F0
F9F0
7FF0
7FE0
3FC0
0F80
ENDCHAR
STARTCHAR uni1ED4
ENCODING 7892
SWIDTH 585 0
DWIDTH 18 0
BBX 16 30 1 0
BITMAP
0078
007C
004C
01B8
03C0
07C0
06E0
0E60
0000
07E0
1FF8
3FFC
3FFC
7C3E
7C3E
F81E
F81F
F81F
F81F
F81F
F81F
F81F
F81F
F81E
7C3E
7C3E
3FFC
3FFC
1FF8
07E0
ENDCHAR
STARTCHAR uni1ED5
ENCODING 7893
SWIDTH 463 0
DWIDTH 14 0
BBX 13 27 1 0
BITMAP
00F0
00F8
0018
0018
0038
0070
0F00
0F00
1F80
39C0
0000
0F80
3FC0
7FE0
7FF0
F9F0
F8F0
F8F0
F8F0
F8F0
F8F0
F8F0
F9F0
7FF0
7FE0
3FC0
0F80
ENDCHAR
STARTCHAR uni1ED6
ENCODING 7894
SWIDTH 585 0
DWIDTH 18 0
BBX 16 31 1 0
BITMAP
0730
0FF0
0FF0
0CE0
0000
03C0
07C0
06E0
0E60
0000
07E0
1FF8
3FFC
3FFC
7C3E
7C3E
F81E
F81F
F81F
F81F
F81F
F81F
F81F
F81F
F81E
7C3E
7C3E
3FFC
3FFC
1FF8
07E0
ENDCHAR
STARTCHAR uni1ED7
ENCODING 7895
SWIDTH 463 0
DWIDTH 14 0
BBX 12 26 1 0
BITMAP
1CC0
3FC0
3FC0
3380
0000
0F00
0F00
1F80
39C0
0000
0F80
3FC0
7FE0
7FF0
F9F0
F8F0
F8F0
F8F0
F8F0
F8F0
F8F0
F9F0
7FF0
7FE0
3FC0
0F80
ENDCHAR
STARTCHAR uni1ED8
ENCODING 7896
SWIDTH 599 0
DWIDTH 18 0
BBX 16 33 1 -6
BITMAP
03C0
03C0
07E0
06E0
0C30
0000
07E0
1FF8
3FFC
3FFC
7C3E
7C3E
F81E
F81F
F81F
F81F
F81F
F81F
F81F
F81F
F81E
7C3E
7C3E
3FFC
3FFC
1FF8
07E0
0000
0000
03C0
03C0
03C0
03C0
ENDCHAR
STARTCHAR uni1ED9
ENCODING 7897
SWIDTH 477 0
DWIDTH 14 0
BBX 12 27 1 -6
BITMAP
0F00
0F80
1F80
39C0
0000
0F80
3FC0
7FE0
7FF0
F9F0
F8F0
F8F0
F8F0
F8F0
F8F0
F8F0
F9F0
7FF0
7FE0
3FC0
0F80
0000
0000
0F00
0F00
0F00
0F00
ENDCHAR
STARTCHAR uni1EDA
ENCODING 7898
SWIDTH 599 0
DWIDTH 18 0
BBX 17 28 1 0
BITMAP
002000
00F000
00E000
01C000
038100
000380
000380
07E180
1FFB80
3FFF00
3FFC00
7C3E00
7C3E00
F81E00
F81F00
F81F00
F81F00
F81F00
F81F00
F81F00
F81F00
F81E00
7C3E00
7C3E00
3FFC00
3FFC00
1FF800
07E000
ENDCHAR
STARTCHAR uni1EDB
ENCODING 7899
SWIDTH 477 0
DWIDTH 14 0
BBX 14 23 1 0
BITMAP
0080
03C0
0380
0788
0718
041C
001C
0F1C
3FF8
7FE0
7FE0
F9F0
F8F0
F8F0
F8F0
F8F0
F8F0
F8F0
F9F0
7FF0
7FE0
3FC0
0F80
ENDCHAR
STARTCHAR uni1EDC
ENCODING 7900
SWIDTH 599 0
DWIDTH 18 0
BBX 17 28 1 0
BITMAP
040000
0F0000
070000
038000
018100
000380
000380
07E180
1FFB80
3FFF00
3FFC00
7C3E00
7C3E00
F81E00
F81F00
F81F00
F81F00
F81F00
F81F00
F81F00
F81F00
F81E00
7C3E00
7C3E00
3FFC00
3FFC00
1FF800
07E000
ENDCHAR
STARTCHAR uni1EDD
ENCODING 7901
SWIDTH 477 0
DWIDTH 14 0
BBX 14 23 1 0
BITMAP
1000
3C00
1C00
0E08
0E18
021C
001C
0F1C
3FF8
7FE0
7FE0
F9F0
F8F0
F8F0
F8F0
F8F0
F8F0
F8F0
F9F0
7FF0
7FE0
3FC0
0F80
ENDCHAR
STARTCHAR uni1EDE
ENCODING 7902
SWIDTH 599 0
DWIDTH 18 0
BBX 17 28 1 0
BITMAP
03E000
03F000
007000
006000
01C100
000380
000380
07E180
1FFB80
3FFF00
3FFC00
7C3E00
7C3E00
F81E00
F81F00
F81F00
F81F00
F81F00
F81F00
F81F00
F81F00
F81E00
7C3E00
7C3E00
3FFC00
3FFC00
1FF800
07E000
ENDCHAR
STARTCHAR uni1EDF
ENCODING 7903
SWIDTH 477 0
DWIDTH 14 0
BBX 14 23 1 0
BITMAP
0780
0FC0
01C0
01C8
0798
001C
001C
0F1C
3FF8
7FE0
7FE0
F9F0
F8F0
F8F0
F8F0
F8F0
F8F0
F8F0
F9F0
7FF0
7FE0
3FC0
0F80
ENDCHAR
STARTCHAR uni1EE0
ENCODING 7904
SWIDTH 599 0
DWIDTH 18 0
BBX 17 27 1 0
BITMAP
0F3000
0FF000
1FF000
18E100
000380
000380
07E180
1FFB80
3FFF00
3FFC00
7C3E00
7C3E00
F81E00
F81F00
F81F00
F81F00
F81F00
F81F00
F81F00
F81F00
F81E00
7C3E00
7C3E00
3FFC00
3FFC00
1FF800
07E000
ENDCHAR
STARTCHAR uni1EE1
ENCODING 7905
SWIDTH 477 0
DWIDTH 14 0
BBX 14 21 1 0
BITMAP
1CE0
3FC0
7FC8
639C
001C
0F1C
3FF8
7FE0
7FE0
F9F0
F8F0
F8F0
F8F0
F8F0
F8F0
F8F0
F9F0
7FF0
7FE0
3FC0
0F80
ENDCHAR
STARTCHAR uni1EE2
ENCODING 7906
SWIDTH 599 0
DWIDTH 18 0
BBX 17 30 1 -6
BITMAP
000100
000380
000380
07E180
1FFB80
3FFF00
3FFC00
7C3E00
7C3E00
F81E00
F81F00
F81F00
F81F00
F81F00
F81F00
F81F00
F81F00
F81E00
7C3E00
7C3E00
3FFC00
3FFC00
1FF800
07E000
000000
000000
03C000
03C000
03C000
03C000
ENDCHAR
STARTCHAR uni1EE3
ENCODING 7907
SWIDTH 477 0
DWIDTH 14 0
BBX 14 25 1 -6
BITMAP
0018
001C
001C
0F1C
3FF8
7FE0
7FE0
F9F0
F8F0
F8F0
F8F0
F8F0
F8F0
F8F0
F9F0
7FF0
7FE0
3FC0
0F80
0000
0000
0F00
0F00
0F00
0F00
ENDCHAR
STARTCHAR uni1EE4
ENCODING 7908
SWIDTH 583 0
DWIDTH 17 0
BBX 14 27 2 -6
BITMAP
F07C
F07C
F07C
F07C
F07C
F07C
F07C
F07C
F07C
F07C
F07C
F07C
F07C
F07C
F07C
F07C
F8FC
FFF8
7FF8
3FF0
1FC0
0000
0000
0780
0780
0780
0780
ENDCHAR
STARTCHAR uni1EE5
ENCODING 7909
SWIDTH 482 0
DWIDTH 14 0
BBX 12 22 1 -6
BITMAP
78F0
F9F0
F9F0
F9F0
F9F0
F9F0
F9F0
F9F0
F9F0
F9F0
F9F0
F9F0
FFF0
7FF0
7EF0
3CF0
0000
0000
0F00
0F00
0F00
0F00
ENDCHAR
STARTCHAR uni1EE6
ENCODING 7910
SWIDTH 583 0
DWIDTH 17 0
BBX 14 28 2 0
BITMAP
0780
07C0
00C0
01C0
0380
0000
0000
F07C
F07C
F07C
F07C
F07C
F07C
F07C
F07C
F07C
F07C
F07C
F07C
F07C
F07C
F07C
F07C
F8FC
FFF8
7FF8
3FF0
1FC0
ENDCHAR
STARTCHAR uni1EE7
ENCODING 7911
SWIDTH 482 0
DWIDTH 14 0
BBX 12 23 1 0
BITMAP
0780
0FC0
01C0
01C0
0780
0000
0000
78F0
F9F0
F9F0
F9F0
F9F0
F9F0
F9F0
F9F0
F9F0
F9F0
F9F0
F9F0
FFF0
7FF0
7EF0
3CF0
ENDCHAR
STARTCHAR uni1EE8
ENCODING 7912
SWIDTH 570 0
DWIDTH 17 0
BBX 17 28 1 0
BITMAP
002000
00F000
01E100
03C380
038380
000180
000380
F83F00
F83E00
F83E00
F83E00
F83E00
F83E00
F83E00
F83E00
F83E00
F83E00
F83E00
F83E00
F83E00
F83E00
F83E00
F83E00
FC7E00
7FFC00
7FFC00
3FF800
0FE000
ENDCHAR
STARTCHAR uni1EE9
ENCODING 7913
SWIDTH 468 0
DWIDTH 14 0
BBX 14 23 1 0
BITMAP
0080
03C0
0380
0718
071C
0C1C
001C
F9F8
F9F0
F9F0
F9F0
F9F0
F9F0
F9F0
F9F0
F9F0
F9F0
F9F0
F9F0
FFF0
FFF0
7EF0
3CF0
ENDCHAR
STARTCHAR uni1EEA
ENCODING 7914
SWIDTH 570 0
DWIDTH 17 0
BBX 17 28 1 0
BITMAP
080000
1E0000
0F0100
070380
038380
000180
000380
F83F00
F83E00
F83E00
F83E00
F83E00
F83E00
F83E00
F83E00
F83E00
F83E00
F83E00
F83E00
F83E00
F83E00
F83E00
F83E00
FC7E00
7FFC00
7FFC00
3FF800
0FE000
ENDCHAR
STARTCHAR uni1EEB
ENCODING 7915
SWIDTH 468 0
DWIDTH 14 0
BBX 14 23 1 0
BITMAP
1000
3C00
1C00
1E18
0E1C
021C
001C
F9F8
F9F0
F9F0
F9F0
F9F0
F9F0
F9F0
F9F0
F9F0
F9F0
F9F0
F9F0
FFF0
FFF0
7EF0
3CF0
ENDCHAR
STARTCHAR uni1EEC
ENCODING 7916
SWIDTH 570 0
DWIDTH 17 0
BBX 17 28 1 0
BITMAP
03C000
03E000
006100
00E380
01C380
000180
000380
F83F00
F83E00
F83E00
F83E00
F83E00
F83E00
F83E00
F83E00
F83E00
F83E00
F83E00
F83E00
F83E00
F83E00
F83E00
F83E00
FC7E00
7FFC00
7FFC00
3FF800
0FE000
ENDCHAR
STARTCHAR uni1EED
ENCODING 7917
SWIDTH 468 0
DWIDTH 14 0
BBX 14 23 1 0
BITMAP
0F80
0FC0
01C0
0198
071C
001C
001C
F9F8
F9F0
F9F0
F9F0
F9F0
F9F0
F9F0
F9F0
F9F0
F9F0
F9F0
F9F0
FFF0
FFF0
7EF0
3CF0
ENDCHAR
STARTCHAR uni1EEE
ENCODING 7918
SWIDTH 570 0
DWIDTH 17 0
BBX 17 27 1 0
BITMAP
0E3000
1FF100
1FE380
19E380
000180
000380
F83F00
F83E00
F83E00
F83E00
F83E00
F83E00
F83E00
F83E00
F83E00
F83E00
F83E00
F83E00
F83E00
F83E00
F83E00
F83E00
FC7E00
7FFC00
7FFC00
3FF800
0FE000
ENDCHAR
STARTCHAR uni1EEF
ENCODING 7919
SWIDTH 468 0
DWIDTH 14 0
BBX 14 21 1 0
BITMAP
3FC8
3F9C
7F9C
001C
001C
F9F8
F9F0
F9F0
F9F0
F9F0
F9F0
F9F0
F9F0
F9F0
F9F0
F9F0
F9F0
FFF0
FFF0
7EF0
3CF0
ENDCHAR
STARTCHAR uni1EF0
ENCODING 7920
SWIDTH 570 0
DWIDTH 17 0
BBX 17 32 1 -6
BITMAP
000100
000380
000380
000180
000380
F83F00
F83E00
F83E00
F83E00
F83E00
F83E00
F83E00
F83E00
F83E00
F83E00
F83E00
F83E00
F83E00
F83E00
F83E00
F83E00
FC7E00
7FFC00
7FFC00
3FF800
0FE000
000000
000000
038000
03C000
03C000
038000
ENDCHAR
STARTCHAR uni1EF1
ENCODING 7921
SWIDTH 468 0
DWIDTH 14 0
BBX 14 26 1 -6
BITMAP
0018
001C
001C
001C
F9F8
F9F0
F9F0
F9F0
F9F0
F9F0
F9F0
F9F0
F9F0
F9F0
F9F0
F9F0
FFF0
FFF0
7EF0
3CF0
0000
0000
0F00
0F00
0F00
0F00
ENDCHAR
STARTCHAR Ygrave
ENCODING 7922
SWIDTH 484 0
DWIDTH 15 0
BBX 14 28 0 0
BITMAP
1E00
1E00
0F00
0700
0380
0000
0000
F83C
F87C
7C7C
7C78
3CF8
3EF8
1EF0
1FF0
1FE0
0FE0
0FC0
07C0
07C0
07C0
07C0
07C0
07C0
07C0
07C0
07C0
0780
ENDCHAR
STARTCHAR ygrave
ENCODING 7923
SWIDTH 408 0
DWIDTH 12 0
BBX 12 28 0 -6
BITMAP
3C00
3C00
1E00
0E00
0200
0000
F0F0
F8F0
78F0
79F0
79E0
79E0
3DE0
3DC0
3FC0
3FC0
1FC0
1F80
1F80
0F80
0F80
0700
0F00
0F00
0F00
0E00
1E00
1E00
ENDCHAR
STARTCHAR uni1EF4
ENCODING 7924
SWIDTH 484 0
DWIDTH 15 0
BBX 14 27 0 -6
BITMAP
F83C
F87C
7C7C
7C78
3CF8
3EF8
1EF0
1FF0
1FE0
0FE0
0FC0
07C0
07C0
07C0
07C0
07C0
07C0
07C0
07C0
07C0
0780
0000
0000
0380
0780
0780
0380
ENDCHAR
STARTCHAR uni1EF5
ENCODING 7925
SWIDTH 408 0
DWIDTH 12 0
BBX 12 23 0 -7
BITMAP
F0F0
F8F0
78F0
79E0
79E0
79E0
3DE0
3DC0
3FC0
1FC0
1FC0
1F80
1F80
0F80
0780
0700
0F00
0F00
0F00
1EF0
1EF0
1EF0
00F0
ENDCHAR
STARTCHAR uni1EF6
ENCODING 7926
SWIDTH 484 0
DWIDTH 15 0
BBX 14 28 0 0
BITMAP
03C0
07E0
00E0
00E0
03C0
0000
0000
F83C
F87C
7C7C
7C78
3CF8
3EF8
1EF0
1FF0
1FE0
0FE0
0FC0
07C0
07C0
07C0
07C0
07C0
07C0
07C0
07C0
07C0
0780
ENDCHAR
STARTCHAR uni1EF7
ENCODING 7927
SWIDTH 408 0
DWIDTH 12 0
BBX 12 29 0 -6
BITMAP
0780
0FC0
01C0
0180
0780
0000
0000
F0F0
F8F0
78F0
79E0
79E0
79E0
3DE0
3DC0
3FC0
1FC0
1FC0
1F80
1F80
0F80
0780
0700
0F00
0F00
0F00
1E00
1E00
1E00
ENDCHAR
STARTCHAR uni1EF8
ENCODING 7928
SWIDTH 484 0
DWIDTH 15 0
BBX 14 27 0 0
BITMAP
0E60
1FF0
3FE0
39C0
0000
0000
F83C
F87C
7C7C
7C78
3CF8
3EF8
1EF0
1FF0
1FE0
0FE0
0FC0
07C0
07C0
07C0
07C0
07C0
07C0
07C0
07C0
07C0
0780
ENDCHAR
STARTCHAR uni1EF9
ENCODING 7929
SWIDTH 408 0
DWIDTH 12 0
BBX 12 27 0 -6
BITMAP
1CE0
3FC0
7FC0
6380
0000
F0F0
F8F0
78F0
79E0
79E0
79E0
3DE0
3DC0
3FC0
1FC0
1FC0
1F80
1F80
0F80
0780
0700
0F00
0F00
0F00
1E00
1E00
1E00
ENDCHAR
STARTCHAR uni2002
ENCODING 8194
SWIDTH 486 0
DWIDTH 15 0
BBX 1 1 0 0
BITMAP
00
ENDCHAR
STARTCHAR uni2003
ENCODING 8195
SWIDTH 886 0
DWIDTH 27 0
BBX 1 1 0 0
BITMAP
00
ENDCHAR
STARTCHAR uni2004
ENCODING 8196
SWIDTH 291 0
DWIDTH 9 0
BBX 1 1 0 0
BITMAP
00
ENDCHAR
STARTCHAR uni2005
ENCODING 8197
SWIDTH 221 0
DWIDTH 7 0
BBX 1 1 0 0
BITMAP
00
ENDCHAR
STARTCHAR endash
ENCODING 8211
SWIDTH 443 0
DWIDTH 13 0
BBX 13 3 0 6
BITMAP
FFF8
FFF8
FFF8
ENDCHAR
STARTCHAR emdash
ENCODING 8212
SWIDTH 886 0
DWIDTH 27 0
BBX 27 3 0 6
BITMAP
FFFFFFC0
FFFFFFE0
FFFFFFC0
ENDCHAR
STARTCHAR quoteleft
ENCODING 8216
SWIDTH 210 0
DWIDTH 6 0
BBX 6 8 0 15
BITMAP
0C
1C
38
78
78
78
F8
70
ENDCHAR
STARTCHAR quoteright
ENCODING 8217
SWIDTH 210 0
DWIDTH 6 0
BBX 5 8 1 15
BITMAP
78
78
78
78
F0
F0
E0
C0
ENDCHAR
STARTCHAR quotesinglbase
ENCODING 8218
SWIDTH 210 0
DWIDTH 6 0
BBX 6 8 0 -3
BITMAP
3C
3C
3C
3C
78
78
70
E0
ENDCHAR
STARTCHAR quotedblleft
ENCODING 8220
SWIDTH 348 0
DWIDTH 10 0
BBX 11 8 0 15
BITMAP
1CE0
39C0
7BC0
7BC0
F780
F780
F780
F780
ENDCHAR
STARTCHAR quotedblright
ENCODING 8221
SWIDTH 348 0
DWIDTH 10 0
BBX 11 8 0 15
BITMAP
39C0
3DE0
3DE0
7BC0
7BC0
7380
F780
E700
ENDCHAR
STARTCHAR quotedblbase
ENCODING 8222
SWIDTH 348 0
DWIDTH 10 0
BBX 10 8 0 -3
BITMAP
7BC0
7BC0
7BC0
7BC0
7380
F780
E700
C600
ENDCHAR
STARTCHAR dagger
ENCODING 8224
SWIDTH 428 0
DWIDTH 13 0
BBX 11 25 1 -4
BITMAP
0E00
0E00
0E00
0E00
0E00
FFE0
FFE0
FFE0
0E00
0E00
0E00
0E00
0E00
0E00
0E00
0E00
0E00
0E00
0E00
0E00
0E00
0E00
0E00
0E00
0E00
ENDCHAR
STARTCHAR daggerdbl
ENCODING 8225
SWIDTH 428 0
DWIDTH 13 0
BBX 11 25 1 -4
BITMAP
0E00
0E00
0E00
0E00
0E00
FFE0
FFE0
FFE0
0E00
0E00
0E00
0E00
0E00
0E00
0E00
0E00
FFE0
FFE0
FFE0
0E00
0E00
0E00
0E00
0E00
0E00
ENDCHAR
STARTCHAR bullet
ENCODING 8226
SWIDTH 298 0
DWIDTH 9 0
BBX 7 8 1 6
BITMAP
38
FC
FE
FE
FE
FE
FC
38
ENDCHAR
STARTCHAR ellipsis
ENCODING 8230
SWIDTH 552 0
DWIDTH 17 0
BBX 15 4 1 0
BITMAP
F79E
F79E
F79E
F79E
ENDCHAR
STARTCHAR perthousand
ENCODING 8240
SWIDTH 986 0
DWIDTH 30 0
BBX 28 21 1 0
BITMAP
3C0E0000
7E0E0000
FF1E0000
E71C0000
E71C0000
E7380000
E7380000
E7700000
7E700000
3CE00000
00E00000
01E783C0
01DFCFE0
01DFCFE0
039DEEF0
039CEE70
071CEE70
071CEE70
0E1DCEE0
0E1FCFE0
0C0783C0
ENDCHAR
STARTCHAR guilsinglleft
ENCODING 8249
SWIDTH 247 0
DWIDTH 7 0
BBX 6 13 1 1
BITMAP
18
3C
38
70
F0
E0
E0
E0
F0
70
38
3C
18
ENDCHAR
STARTCHAR guilsinglright
ENCODING 8250
SWIDTH 247 0
DWIDTH 7 0
BBX 6 13 1 1
BITMAP
C0
E0
F0
70
78
38
1C
38
78
70
F0
E0
C0
ENDCHAR
STARTCHAR fraction
ENCODING 8260
SWIDTH 211 0
DWIDTH 6 0
BBX 11 21 -2 0
BITMAP
0060
00C0
00C0
0180
0180
0380
0300
0700
0600
0600
0C00
0C00
1800
1800
3800
3000
7000
6000
6000
C000
C000
ENDCHAR
STARTCHAR Euro
ENCODING 8364
SWIDTH 503 0
DWIDTH 15 0
BBX 15 21 0 0
BITMAP
03F0
0FFC
1FFC
1FFC
3F08
3E00
3E00
FFF8
FFF8
3C00
3C00
3C00
FFF8
FFF8
3E00
3E00
3F0C
1FFC
1FFE
0FFC
03F0
ENDCHAR
STARTCHAR uni20B2
ENCODING 8370
SWIDTH 538 0
DWIDTH 16 0
BBX 14 25 1 -2
BITMAP
0180
0180
07F0
1FF8
3FFC
7FF8
7E10
FC00
F800
F800
F800
F9FC
F9FC
F9FC
F9FC
F87C
F87C
FC7C
7C7C
7FFC
3FFC
1FFC
07F0
0180
0180
ENDCHAR
STARTCHAR uni2113
ENCODING 8467
SWIDTH 343 0
DWIDTH 10 0
BBX 11 23 -1 0
BITMAP
0780
0FC0
1FE0
1E60
3E60
3E60
3E60
3EC0
3CC0
3CC0
3D80
3F80
3F00
3E00
3C00
7C00
FC00
FC00
3C00
3E00
3FC0
1FC0
0F80
ENDCHAR
STARTCHAR trademark
ENCODING 8482
SWIDTH 617 0
DWIDTH 19 0
BBX 18 11 0 10
BITMAP
FFE1C0
FFE1C0
18F3C0
18F3C0
18FFC0
18FEC0
18EEC0
18ECC0
18E4C0
18E0C0
18E0C0
ENDCHAR
STARTCHAR uni2126
ENCODING 8486
SWIDTH 585 0
DWIDTH 18 0
BBX 16 21 1 0
BITMAP
07E0
1FF8
3FFC
3FFC
7E7E
7C3E
F81F
F81F
F81F
F81F
F81F
F81F
F81F
F81F
781E
783E
3C3C
FE7F
FE7F
FE7F
FE7F
ENDCHAR
STARTCHAR estimated
ENCODING 8494
SWIDTH 615 0
DWIDTH 18 0
BBX 17 21 1 0
BITMAP
07E000
0C1800
380C00
380E00
780F00
F80F00
F80F00
F80F80
F80F80
FFFF80
F80000
F80000
F80000
F80000
F80000
780000
780000
380200
180600
0C1800
03E000
ENDCHAR
STARTCHAR uni2153
ENCODING 8531
SWIDTH 634 0
DWIDTH 19 0
BBX 17 21 1 0
BITMAP
781800
F83800
F83000
383000
386000
386000
38E000
38C000
38C000
399E00
39BF00
3B9380
130380
030300
060E00
060F00
0C0380
0C0180
1C2380
183F80
181F00
ENDCHAR
STARTCHAR uni2154
ENCODING 8532
SWIDTH 692 0
DWIDTH 21 0
BBX 20 21 0 0
BITMAP
7C0300
7E0600
470600
070E00
060C00
0E1C00
1C1800
181800
383000
7033C0
7F77E0
FF6070
006070
00C060
00C3C0
01C3E0
018070
018070
030470
0307F0
0603C0
ENDCHAR
STARTCHAR oneeighth
ENCODING 8539
SWIDTH 628 0
DWIDTH 19 0
BBX 17 21 1 0
BITMAP
F81800
F83800
383000
387000
386000
386000
38C000
38C000
39CE00
399F00
39BB80
3B3380
033B80
071F00
061F00
063F80
0C3380
0C3180
1C3B80
183F00
381E00
ENDCHAR
STARTCHAR arrowleft
ENCODING 8592
SWIDTH 600 0
DWIDTH 18 0
BBX 18 16 0 0
BITMAP
018000
03C000
078000
0F0000
1E0000
3C0000
7C0000
7FFF80
FFFFC0
7FFF80
7C0000
3C0000
1E0000
0F0000
078000
03C000
ENDCHAR
STARTCHAR arrowup
ENCODING 8593
SWIDTH 505 0
DWIDTH 15 0
BBX 15 22 0 0
BITMAP
0100
0380
07C0
0FE0
1FF0
3FF8
7FFC
7BBE
F39E
E38E
C386
8382
0380
0380
0380
0380
0380
0380
0380
0380
0380
0380
ENDCHAR
STARTCHAR arrowright
ENCODING 8594
SWIDTH 600 0
DWIDTH 18 0
BBX 18 16 0 0
BITMAP
006000
00F000
007800
003C00
001E00
000F00
000F80
7FFF80
FFFFC0
7FFF80
000F80
000F00
001E00
003C00
007800
00F000
ENDCHAR
STARTCHAR arrowdown
ENCODING 8595
SWIDTH 505 0
DWIDTH 15 0
BBX 15 21 0 1
BITMAP
0100
0380
0380
0380
0380
0380
0380
0380
0380
0380
8382
C386
E38E
F39E
7BBC
3FF8
1FF0
0FE0
07C0
0380
0100
ENDCHAR
STARTCHAR partialdiff
ENCODING 8706
SWIDTH 411 0
DWIDTH 12 0
BBX 12 22 0 0
BITMAP
3E00
7F80
7FC0
3FC0
23E0
01E0
01E0
01F0
00F0
1EF0
3FF0
7FF0
7FF0
F9F0
F8F0
F0F0
F1F0
F9E0
7FE0
7FC0
3F80
1F00
ENDCHAR
STARTCHAR uni2206
ENCODING 8710
SWIDTH 566 0
DWIDTH 17 0
BBX 16 22 1 0
BITMAP
03C0
07C0
07C0
07E0
0FE0
0FE0
0FF0
1EF0
1EF0
1EF8
3E78
3C78
3C7C
7C3C
783C
783C
783E
F81E
FFFE
FFFF
FFFF
FFFE
ENDCHAR
STARTCHAR product
ENCODING 8719
SWIDTH 600 0
DWIDTH 18 0
BBX 18 24 0 -3
BITMAP
FFFFC0
FFFFC0
FFFFC0
FFFFC0
1E1E00
1E1E00
1E1E00
1E1E00
1E1E00
1E1E00
1E1E00
1E1E00
1E1E00
1E1E00
1E1E00
1E1E00
1E1E00
1E1E00
1E1E00
1E1E00
1E1E00
1E1E00
1E1E00
1E1E00
ENDCHAR
STARTCHAR summation
ENCODING 8721
SWIDTH 474 0
DWIDTH 14 0
BBX 14 24 0 -3
BITMAP
7FFC
FFFC
FFFC
7FFC
7C00
3E00
3F00
1F00
0F80
0F80
07C0
07C0
07C0
0FC0
0F80
1F80
1F00
3F00
3E00
7E00
7FFC
FFFC
FFFC
7FFC
ENDCHAR
STARTCHAR minus
ENCODING 8722
SWIDTH 449 0
DWIDTH 13 0
BBX 12 3 1 5
BITMAP
FFF0
FFF0
FFF0
ENDCHAR
STARTCHAR uni2215
ENCODING 8725
SWIDTH 221 0
DWIDTH 7 0
BBX 11 23 -2 -2
BITMAP
00E0
01E0
01E0
03C0
03C0
03C0
0380
0780
0780
0700
0F00
0F00
0E00
1E00
1E00
1C00
3C00
3C00
3800
7800
7800
7000
F000
ENDCHAR
STARTCHAR uni2219
ENCODING 8729
SWIDTH 225 0
DWIDTH 7 0
BBX 4 4 1 9
BITMAP
70
F0
F0
70
ENDCHAR
STARTCHAR radical
ENCODING 8730
SWIDTH 495 0
DWIDTH 15 0
BBX 15 29 0 -5
BITMAP
000E
001E
001E
001E
001E
001C
003C
003C
003C
003C
0038
0038
0878
3C78
FC78
7C78
7C70
1E70
1EF0
0EF0
0EF0
0EE0
07E0
07E0
07E0
07E0
03C0
03C0
03C0
ENDCHAR
STARTCHAR infinity
ENCODING 8734
SWIDTH 630 0
DWIDTH 19 0
BBX 17 10 1 3
BITMAP
3C1E00
7F7F00
7F7F00
F7E780
E3E380
E3E380
F3E780
7F7F00
7F7F00
3C1E00
ENDCHAR
STARTCHAR integral
ENCODING 8747
SWIDTH 298 0
DWIDTH 9 0
BBX 11 31 -1 -5
BITMAP
03C0
07E0
0FC0
0F00
1E00
1E00
1E00
1E00
1E00
1E00
1E00
1E00
1E00
1E00
1E00
1E00
1E00
1F00
1F00
0F00
0F00
0F00
0F00
0F00
0F00
1F00
1E00
1E00
FE00
FC00
7800
ENDCHAR
STARTCHAR approxequal
ENCODING 8776
SWIDTH 438 0
DWIDTH 13 0
BBX 11 9 1 3
BITMAP
3C60
FFE0
C3C0
0000
0000
0000
3C60
FFE0
C3C0
ENDCHAR
STARTCHAR notequal
ENCODING 8800
SWIDTH 448 0
DWIDTH 13 0
BBX 12 13 1 1
BITMAP
00E0
01E0
FFE0
FFF0
FFE0
0F00
0F00
1E00
FFE0
FFF0
FFE0
7800
F000
ENDCHAR
STARTCHAR lessequal
ENCODING 8804
SWIDTH 453 0
DWIDTH 14 0
BBX 11 17 1 0
BITMAP
0020
0060
01E0
0FE0
3F80
FE00
F800
FC00
7F00
1F80
07E0
01E0
0060
0000
FFE0
FFE0
FFE0
ENDCHAR
STARTCHAR greaterequal
ENCODING 8805
SWIDTH 453 0
DWIDTH 14 0
BBX 11 17 1 0
BITMAP
8000
E000
F800
FE00
3F80
0FE0
03E0
07E0
1FC0
7F00
FC00
F000
8000
0000
FFE0
FFE0
FFE0
ENDCHAR
STARTCHAR lozenge
ENCODING 9674
SWIDTH 446 0
DWIDTH 13 0
BBX 12 22 1 0
BITMAP
0400
0F00
1F00
1F80
3F80
3F80
3FC0
7BC0
7BE0
F9E0
F1E0
F1F0
F1E0
79E0
7BE0
7BC0
3FC0
3F80
3F80
1F80
1F00
0F00
ENDCHAR
STARTCHAR uni25CC
ENCODING 9676
SWIDTH 480 0
DWIDTH 14 0
BBX 12 15 1 3
BITMAP
0600
1E80
39E0
2060
4030
C030
0000
C010
C010
4030
C030
2060
2060
1E80
1F80
ENDCHAR
STARTCHAR fi
ENCODING 64257
SWIDTH 540 0
DWIDTH 16 0
BBX 14 23 1 0
BITMAP
1E00
3F00
7F38
7F78
7878
7838
7800
FFFC
FFFC
FFFC
FFFC
787C
787C
787C
787C
787C
787C
787C
787C
787C
787C
787C
7878
ENDCHAR
STARTCHAR fl
ENCODING 64258
SWIDTH 556 0
DWIDTH 17 0
BBX 16 23 1 0
BITMAP
1E78
3F7C
7F7C
7F7C
787C
787C
787C
FE7C
FE7C
FE7C
FE7C
787C
787C
787C
787C
787C
787C
787C
787C
787E
787F
783F
781E
ENDCHAR
STARTCHAR .notdef
ENCODING -1
SWIDTH 514 0
DWIDTH 15 0
BBX 15 21 0 0
BITMAP
FFFE
E00E
F00E
F01A
D812
C832
CC62
C662
C6C2
C382
C182
C382
C2C2
C642
CC62
C832
D812
F01A
F00E
E00E
FFFE
ENDCHAR
STARTCHAR Iacute_J.loclNLD
ENCODING -1
SWIDTH 617 0
DWIDTH 19 0
BBX 17 28 2 0
BITMAP
080100
3C0780
780F00
701E00
E01C00
000000
000000
F03E00
F03E00
F03E00
F03E00
F03E00
F03E00
F03E00
F03E00
F03E00
F03E00
F03E00
F03E00
F03E00
F03E00
F03E00
F03E00
F03E00
F1FE00
F3FC00
F3FC00
F1F000
ENDCHAR
STARTCHAR Y.loclGUA
ENCODING -1
SWIDTH 498 0
DWIDTH 15 0
BBX 13 21 1 0
BITMAP
F8F0
F8F8
F8F8
F8F8
F8F8
F8F8
F8F8
F8F8
F8F8
F8F8
F9F8
FFF8
7FF8
7FF8
3EF0
00F0
C1F0
FFF0
FFE0
7FE0
1F80
ENDCHAR
STARTCHAR Yacute.loclGUA
ENCODING -1
SWIDTH 498 0
DWIDTH 15 0
BBX 13 28 1 0
BITMAP
0080
03C0
0380
0780
0700
0000
0000
F8F0
F8F8
F8F8
F8F8
F8F8
F8F8
F8F8
F8F8
F8F8
F8F8
F9F8
FFF8
7FF8
7FF8
3EF0
00F0
C1F0
FFF0
FFE0
7FE0
1F80
ENDCHAR
STARTCHAR Ycircumflex.loclGUA
ENCODING -1
SWIDTH 498 0
DWIDTH 15 0
BBX 13 27 1 0
BITMAP
0700
0F80
1F80
1DC0
0000
0000
F8F0
F8F8
F8F8
F8F8
F8F8
F8F8
F8F8
F8F8
F8F8
F8F8
F9F8
FFF8
7FF8
7FF8
3EF0
00F0
C1F0
FFF0
FFE0
7FE0
1F80
ENDCHAR
STARTCHAR Ydieresis.loclGUA
ENCODING -1
SWIDTH 498 0
DWIDTH 15 0
BBX 13 27 1 0
BITMAP
39C0
3DC0
3DC0
39C0
0000
0000
F8F0
F8F8
F8F8
F8F8
F8F8
F8F8
F8F8
F8F8
F8F8
F8F8
F9F8
FFF8
7FF8
7FF8
3EF0
00F0
C1F0
FFF0
FFE0
7FE0
1F80
ENDCHAR
STARTCHAR uni1EF4.loclGUA
ENCODING -1
SWIDTH 498 0
DWIDTH 15 0
BBX 13 27 1 -6
BITMAP
F8F0
F8F8
F8F8
F8F8
F8F8
F8F8
F8F8
F8F8
F8F8
F8F8
F9F8
FFF8
7FF8
7FF8
3EF0
00F0
C1F0
FFF0
FFE0
7FE0
1F80
0000
0000
0F00
0F00
0F00
0F00
ENDCHAR
STARTCHAR Ygrave.loclGUA
ENCODING -1
SWIDTH 498 0
DWIDTH 15 0
BBX 13 28 1 0
BITMAP
1000
3C00
1E00
0E00
0700
0000
0000
F8F0
F8F8
F8F8
F8F8
F8F8
F8F8
F8F8
F8F8
F8F8
F8F8
F9F8
FFF8
7FF8
7FF8
3EF0
00F0
C1F0
FFF0
FFE0
7FE0
1F80
ENDCHAR
STARTCHAR uni1EF6.loclGUA
ENCODING -1
SWIDTH 498 0
DWIDTH 15 0
BBX 13 28 1 0
BITMAP
0780
0FC0
01C0
01C0
0780
0000
0000
F8F0
F8F8
F8F8
F8F8
F8F8
F8F8
F8F8
F8F8
F8F8
F8F8
F9F8
FFF8
7FF8
7FF8
3EF0
00F0
C1F0
FFF0
FFE0
7FE0
1F80
ENDCHAR
STARTCHAR uni1EF8.loclGUA
ENCODING -1
SWIDTH 498 0
DWIDTH 15 0
BBX 13 27 1 0
BITMAP
1CE0
3FE0
7FC0
3380
0000
0000
F8F0
F8F8
F8F8
F8F8
F8F8
F8F8
F8F8
F8F8
F8F8
F8F8
F9F8
FFF8
7FF8
7FF8
3EF0
00F0
C1F0
FFF0
FFE0
7FE0
1F80
ENDCHAR
STARTCHAR Cacute.loclPLK
ENCODING -1
SWIDTH 459 0
DWIDTH 14 0
BBX 12 27 1 0
BITMAP
00E0
01E0
01C0
01C0
0380
0000
07E0
1FF0
3FF0
7FE0
7E00
7C00
F800
F800
F800
F800
F800
F800
F800
F800
F800
7C00
7E00
7FF0
3FF0
1FF0
07E0
ENDCHAR
STARTCHAR Nacute.loclPLK
ENCODING -1
SWIDTH 590 0
DWIDTH 18 0
BBX 14 27 2 0
BITMAP
01C0
03C0
0380
0380
0700
0000
E03C
F03C
F83C
F83C
FC3C
FC3C
FE3C
FE3C
FF3C
FF3C
F7BC
F7BC
F3FC
F3FC
F1FC
F0FC
F0FC
F07C
F07C
F03C
F03C
ENDCHAR
STARTCHAR Oacute.loclPLK
ENCODING -1
SWIDTH 599 0
DWIDTH 18 0
BBX 16 27 1 0
BITMAP
00F0
01E0
01E0
01C0
0180
0000
07E0
1FF8
3FFC
3FFC
7C3E
7C3E
F81E
F81F
F81F
F81F
F81F
F81F
F81F
F81F
F81E
7C3E
7C3E
3FFC
3FFC
1FF8
07E0
ENDCHAR
STARTCHAR Sacute.loclPLK
ENCODING -1
SWIDTH 437 0
DWIDTH 13 0
BBX 12 27 1 0
BITMAP
0780
0780
0700
0F00
0E00
0000
1F80
3FE0
7FE0
FFE0
F840
F800
F800
FC00
7E00
7F80
3FC0
0FE0
07E0
01F0
01F0
01F0
E3F0
FFE0
FFE0
FFC0
3F00
ENDCHAR
STARTCHAR Zacute.loclPLK
ENCODING -1
SWIDTH 507 0
DWIDTH 15 0
BBX 13 27 1 0
BITMAP
03C0
03C0
0380
0780
0700
0000
FFF8
FFF8
FFF8
FFF8
01F8
01F0
03E0
07E0
07C0
0FC0
0F80
1F80
1F00
3F00
3E00
7E00
7C00
FFF8
FFF8
FFF8
FFF8
ENDCHAR
STARTCHAR i.loclTRK
ENCODING -1
SWIDTH 254 0
DWIDTH 8 0
BBX 4 21 2 0
BITMAP
F0
F0
F0
F0
00
F0
F0
F0
F0
F0
F0
F0
F0
F0
F0
F0
F0
F0
F0
F0
F0
ENDCHAR
STARTCHAR iacute_j.loclNLD
ENCODING -1
SWIDTH 503 0
DWIDTH 15 0
BBX 14 29 2 -6
BITMAP
0808
3C3C
7878
7070
F0E0
4080
0000
F1E0
F1F0
F1F0
F1F0
F1F0
F1F0
F1F0
F1F0
F1F0
F1F0
F1F0
F1F0
F1F0
F1F0
F1F0
F1F0
01F0
01F0
07F0
07E0
07E0
07C0
ENDCHAR
STARTCHAR y.loclGUA
ENCODING -1
SWIDTH 482 0
DWIDTH 14 0
BBX 12 22 1 -6
BITMAP
78F0
F8F0
F8F0
F8F0
F8F0
F8F0
F8F0
F8F0
F8F0
F8F0
F8F0
F9F0
FFF0
7FF0
7EF0
3CF0
01F0
43E0
7FE0
7FE0
7FC0
3F00
ENDCHAR
STARTCHAR yacute.loclGUA
ENCODING -1
SWIDTH 482 0
DWIDTH 14 0
BBX 12 29 1 -6
BITMAP
0080
03C0
0380
0780
0700
0400
0000
78F0
F8F0
F8F0
F8F0
F8F0
F8F0
F8F0
F8F0
F8F0
F8F0
F8F0
F9F0
FFF0
7FF0
7EF0
3CF0
01F0
43E0
7FE0
7FE0
7FC0
3F00
ENDCHAR
STARTCHAR ycircumflex.loclGUA
ENCODING -1
SWIDTH 482 0
DWIDTH 14 0
BBX 12 27 1 -6
BITMAP
0F00
0F80
1F80
38C0
0000
78F0
F8F0
F8F0
F8F0
F8F0
F8F0
F8F0
F8F0
F8F0
F8F0
F8F0
F9F0
FFF0
7FF0
7EF0
3CF0
01F0
43E0
7FE0
7FE0
7FC0
3F00
ENDCHAR
STARTCHAR ydieresis.loclGUA
ENCODING -1
SWIDTH 482 0
DWIDTH 14 0
BBX 12 27 1 -6
BITMAP
39C0
3DC0
3DC0
39C0
0000
78F0
F8F0
F8F0
F8F0
F8F0
F8F0
F8F0
F8F0
F8F0
F8F0
F8F0
F9F0
FFF0
7FF0
7EF0
3CF0
01F0
43E0
7FE0
7FE0
7FC0
3F00
ENDCHAR
STARTCHAR uni1EF5.loclGUA
ENCODING -1
SWIDTH 482 0
DWIDTH 14 0
BBX 16 22 1 -6
BITMAP
78F0
F8F0
F8F0
F8F0
F8F0
F8F0
F8F0
F8F0
F8F0
F8F0
F8F0
F9F0
FFF0
7FF0
7EF0
3CF0
01F0
43E0
7FEF
7FEF
7FCF
3F0F
ENDCHAR
STARTCHAR ygrave.loclGUA
ENCODING -1
SWIDTH 482 0
DWIDTH 14 0
BBX 12 29 1 -6
BITMAP
1000
3C00
1C00
0E00
0E00
0300
0000
78F0
F8F0
F8F0
F8F0
F8F0
F8F0
F8F0
F8F0
F8F0
F8F0
F8F0
F9F0
FFF0
7FF0
7EF0
3CF0
01F0
43E0
7FE0
7FE0
7FC0
3F00
ENDCHAR
STARTCHAR uni1EF7.loclGUA
ENCODING -1
SWIDTH 482 0
DWIDTH 14 0
BBX 12 29 1 -6
BITMAP
0780
0FC0
01C0
01C0
0780
0000
0000
78F0
F8F0
F8F0
F8F0
F8F0
F8F0
F8F0
F8F0
F8F0
F8F0
F8F0
F9F0
FFF0
7FF0
7EF0
3CF0
01F0
43E0
7FE0
7FE0
7FC0
3F00
ENDCHAR
STARTCHAR uni1EF9.loclGUA
ENCODING -1
SWIDTH 482 0
DWIDTH 14 0
BBX 12 27 1 -6
BITMAP
1FE0
3FC0
7F80
0000
0000
78F0
F8F0
F8F0
F8F0
F8F0
F8F0
F8F0
F8F0
F8F0
F8F0
F8F0
F9F0
FFF0
7FF0
7EF0
3CF0
01F0
43E0
7FE0
7FE0
7FC0
3F00
ENDCHAR
STARTCHAR cacute.loclPLK
ENCODING -1
SWIDTH 408 0
DWIDTH 12 0
BBX 11 22 1 0
BITMAP
0380
0780
0700
0700
0E00
0000
0F80
3FE0
7FE0
7FE0
F840
F800
F800
F800
F800
F800
F800
F840
7FE0
7FE0
3FE0
0F80
ENDCHAR
STARTCHAR nacute.loclPLK
ENCODING -1
SWIDTH 482 0
DWIDTH 14 0
BBX 12 22 1 0
BITMAP
03C0
0380
0780
0700
0700
0000
71E0
FFF0
FFF0
FDF0
F8F0
F8F0
F8F0
F8F0
F8F0
F8F0
F8F0
F8F0
F8F0
F8F0
F8F0
78F0
ENDCHAR
STARTCHAR oacute.loclPLK
ENCODING -1
SWIDTH 477 0
DWIDTH 14 0
BBX 12 22 1 0
BITMAP
03C0
0780
0780
0700
0700
0000
0F80
3FC0
7FE0
7FF0
F9F0
F8F0
F8F0
F8F0
F8F0
F8F0
F8F0
F9F0
7FF0
7FE0
3FC0
0F80
ENDCHAR
STARTCHAR sacute.loclPLK
ENCODING -1
SWIDTH 353 0
DWIDTH 11 0
BBX 9 22 1 0
BITMAP
0F00
0E00
1E00
1C00
1C00
0000
3F00
7F80
FF80
FF00
F000
F000
FC00
7E00
3F00
0F80
0780
4F80
FF80
FF80
FF00
7C00
ENDCHAR
STARTCHAR zacute.loclPLK
ENCODING -1
SWIDTH 405 0
DWIDTH 12 0
BBX 10 22 1 0
BITMAP
0780
0F00
0F00
0E00
0C00
0000
FFC0
FFC0
FFC0
FFC0
0780
0F80
1F00
1F00
3E00
3C00
7C00
7800
FFC0
FFC0
FFC0
FFC0
ENDCHAR
STARTCHAR g.ss01
ENCODING -1
SWIDTH 471 0
DWIDTH 14 0
BBX 12 22 1 -6
BITMAP
1CE0
7EF0
7FF0
FFF0
F9F0
F9F0
F1F0
F1F0
F1F0
F1F0
F1F0
F9F0
FFF0
7FF0
7FF0
3DF0
01E0
43E0
7FE0
7FE0
7FC0
1F00
ENDCHAR
STARTCHAR gbreve.ss01
ENCODING -1
SWIDTH 471 0
DWIDTH 14 0
BBX 12 27 1 -6
BITMAP
3FC0
3FC0
1F80
0000
0000
1CE0
7EF0
7FF0
FFF0
F9F0
F9F0
F1F0
F1F0
F1F0
F1F0
F1F0
F9F0
FFF0
7FF0
7FF0
3DF0
01E0
43E0
7FE0
7FE0
7FC0
1F00
ENDCHAR
STARTCHAR gcircumflex.ss01
ENCODING -1
SWIDTH 471 0
DWIDTH 14 0
BBX 12 27 1 -6
BITMAP
0F00
0F00
1F80
39C0
0000
1CE0
7EF0
7FF0
FFF0
F9F0
F9F0
F1F0
F1F0
F1F0
F1F0
F1F0
F9F0
FFF0
7FF0
7FF0
3DF0
01E0
43E0
7FE0
7FE0
7FC0
1F00
ENDCHAR
STARTCHAR gcommaaccent.ss01
ENCODING -1
SWIDTH 471 0
DWIDTH 14 0
BBX 12 29 1 -6
BITMAP
0300
0700
0700
0F00
0F00
0700
0000
1CE0
7EF0
7FF0
FFF0
F9F0
F9F0
F1F0
F1F0
F1F0
F1F0
F1F0
F9F0
FFF0
7FF0
7FF0
3DF0
01E0
43E0
7FE0
7FE0
7FC0
1F00
ENDCHAR
STARTCHAR gdotaccent.ss01
ENCODING -1
SWIDTH 471 0
DWIDTH 14 0
BBX 12 27 1 -6
BITMAP
0F00
0F00
0F00
0F00
0000
1CE0
7EF0
7FF0
FFF0
F9F0
F9F0
F1F0
F1F0
F1F0
F1F0
F1F0
F9F0
FFF0
7FF0
7FF0
3DF0
01E0
43E0
7FE0
7FE0
7FC0
1F00
ENDCHAR
STARTCHAR f_f
ENCODING -1
SWIDTH 572 0
DWIDTH 17 0
BBX 17 23 1 0
BITMAP
1E0F00
3F3F80
7F3F80
7F3F00
783C00
783C00
783C00
FFFF00
FFFF00
FFFF00
FFFF00
783C00
783C00
783C00
783C00
783C00
783C00
783C00
783C00
783C00
783C00
783C00
783C00
ENDCHAR
STARTCHAR f_t
ENCODING -1
SWIDTH 584 0
DWIDTH 18 0
BBX 16 23 1 0
BITMAP
1E00
3F00
7F00
7F00
783C
783C
787C
FFFF
FFFF
FFFF
FFFF
787C
787C
787C
787C
787C
787C
787C
787C
787C
783F
783F
781E
ENDCHAR
STARTCHAR quotesingle.loclGUA
ENCODING -1
SWIDTH 171 0
DWIDTH 5 0
BBX 4 10 1 11
BITMAP
E0
F0
F0
F0
E0
E0
E0
E0
C0
C0
ENDCHAR
STARTCHAR caron.alt
ENCODING -1
SWIDTH 256 0
DWIDTH 8 0
BBX 4 6 1 15
BITMAP
E0
F0
E0
E0
E0
C0
ENDCHAR
STARTCHAR acute.loclPLK
ENCODING -1
SWIDTH 256 0
DWIDTH 8 0
BBX 5 5 1 17
BITMAP
78
78
70
F0
E0
ENDCHAR
ENDFONT
